<mxfile host="app.diagrams.net" modified="2022-04-20T13:18:16.740Z" agent="5.0 (Windows NT 10.0; Win64; x64) AppleWebKit/537.36 (KHTML, like Gecko) Chrome/100.0.4896.127 Safari/537.36 Edg/100.0.1185.44" etag="hfsOeOg5Y5v5W9V2FIrS" version="17.4.0" type="github">
  <diagram id="1kreWas-Sw0mc3cVFThk" name="Page-1">
    <mxGraphModel dx="4207" dy="1320" grid="1" gridSize="10" guides="1" tooltips="1" connect="1" arrows="1" fold="1" page="1" pageScale="1" pageWidth="827" pageHeight="1169" math="0" shadow="0">
      <root>
        <mxCell id="0" />
        <mxCell id="1" parent="0" />
        <mxCell id="HOddscPRWS1l2fwZ3m95-415" value="" style="rounded=1;whiteSpace=wrap;html=1;fontSize=20;fillColor=none;" vertex="1" parent="1">
          <mxGeometry x="-360" y="150" width="4970" height="2310" as="geometry" />
        </mxCell>
        <mxCell id="HOddscPRWS1l2fwZ3m95-27" style="edgeStyle=orthogonalEdgeStyle;rounded=0;orthogonalLoop=1;jettySize=auto;html=1;exitX=0;exitY=0.5;exitDx=0;exitDy=0;entryX=0.5;entryY=1;entryDx=0;entryDy=0;fontSize=20;" edge="1" parent="1" source="HOddscPRWS1l2fwZ3m95-1" target="HOddscPRWS1l2fwZ3m95-17">
          <mxGeometry relative="1" as="geometry">
            <Array as="points">
              <mxPoint y="240" />
              <mxPoint y="950" />
              <mxPoint x="293" y="950" />
            </Array>
          </mxGeometry>
        </mxCell>
        <mxCell id="HOddscPRWS1l2fwZ3m95-372" style="edgeStyle=orthogonalEdgeStyle;rounded=0;orthogonalLoop=1;jettySize=auto;html=1;exitX=1;exitY=0.5;exitDx=0;exitDy=0;entryX=0;entryY=0.5;entryDx=0;entryDy=0;fontSize=20;" edge="1" parent="1" source="HOddscPRWS1l2fwZ3m95-1" target="HOddscPRWS1l2fwZ3m95-309">
          <mxGeometry relative="1" as="geometry">
            <Array as="points">
              <mxPoint x="820" y="240" />
              <mxPoint x="820" y="360" />
            </Array>
          </mxGeometry>
        </mxCell>
        <mxCell id="HOddscPRWS1l2fwZ3m95-410" style="edgeStyle=orthogonalEdgeStyle;rounded=0;orthogonalLoop=1;jettySize=auto;html=1;exitX=0;exitY=0.5;exitDx=0;exitDy=0;entryX=0.5;entryY=0;entryDx=0;entryDy=0;fontSize=20;" edge="1" parent="1" source="HOddscPRWS1l2fwZ3m95-1" target="HOddscPRWS1l2fwZ3m95-405">
          <mxGeometry relative="1" as="geometry" />
        </mxCell>
        <mxCell id="HOddscPRWS1l2fwZ3m95-1" value="&lt;font style=&quot;font-size: 20px&quot;&gt;clk&lt;/font&gt;" style="rounded=1;whiteSpace=wrap;html=1;strokeColor=none;fillColor=none;" vertex="1" parent="1">
          <mxGeometry x="60" y="210" width="70" height="60" as="geometry" />
        </mxCell>
        <mxCell id="HOddscPRWS1l2fwZ3m95-34" style="edgeStyle=orthogonalEdgeStyle;rounded=0;orthogonalLoop=1;jettySize=auto;html=1;exitX=0;exitY=0.5;exitDx=0;exitDy=0;entryX=0.5;entryY=1;entryDx=0;entryDy=0;fontSize=20;" edge="1" parent="1" source="HOddscPRWS1l2fwZ3m95-7" target="HOddscPRWS1l2fwZ3m95-17">
          <mxGeometry relative="1" as="geometry">
            <Array as="points">
              <mxPoint x="-60" y="350" />
              <mxPoint x="-60" y="950" />
              <mxPoint x="292" y="950" />
            </Array>
          </mxGeometry>
        </mxCell>
        <mxCell id="HOddscPRWS1l2fwZ3m95-373" style="edgeStyle=orthogonalEdgeStyle;rounded=0;orthogonalLoop=1;jettySize=auto;html=1;exitX=1;exitY=0.5;exitDx=0;exitDy=0;entryX=0;entryY=0;entryDx=0;entryDy=0;fontSize=20;" edge="1" parent="1" source="HOddscPRWS1l2fwZ3m95-7" target="HOddscPRWS1l2fwZ3m95-309">
          <mxGeometry relative="1" as="geometry">
            <Array as="points">
              <mxPoint x="170" y="350" />
              <mxPoint x="170" y="310" />
              <mxPoint x="1640" y="310" />
            </Array>
          </mxGeometry>
        </mxCell>
        <mxCell id="HOddscPRWS1l2fwZ3m95-398" style="edgeStyle=orthogonalEdgeStyle;rounded=0;orthogonalLoop=1;jettySize=auto;html=1;exitX=1;exitY=0.5;exitDx=0;exitDy=0;entryX=0;entryY=0.75;entryDx=0;entryDy=0;fontSize=20;" edge="1" parent="1" source="HOddscPRWS1l2fwZ3m95-7" target="HOddscPRWS1l2fwZ3m95-380">
          <mxGeometry relative="1" as="geometry">
            <Array as="points">
              <mxPoint x="670" y="350" />
              <mxPoint x="670" y="880" />
              <mxPoint x="1630" y="880" />
              <mxPoint x="1630" y="1035" />
            </Array>
          </mxGeometry>
        </mxCell>
        <mxCell id="HOddscPRWS1l2fwZ3m95-7" value="&lt;font style=&quot;font-size: 20px&quot;&gt;rst_n&lt;/font&gt;" style="rounded=1;whiteSpace=wrap;html=1;strokeColor=none;fillColor=none;" vertex="1" parent="1">
          <mxGeometry x="60" y="320" width="70" height="60" as="geometry" />
        </mxCell>
        <mxCell id="HOddscPRWS1l2fwZ3m95-339" style="edgeStyle=orthogonalEdgeStyle;rounded=0;orthogonalLoop=1;jettySize=auto;html=1;exitX=1;exitY=0.5;exitDx=0;exitDy=0;entryX=0;entryY=0.25;entryDx=0;entryDy=0;fontSize=20;" edge="1" parent="1" source="HOddscPRWS1l2fwZ3m95-8" target="HOddscPRWS1l2fwZ3m95-309">
          <mxGeometry relative="1" as="geometry" />
        </mxCell>
        <mxCell id="HOddscPRWS1l2fwZ3m95-8" value="&lt;font style=&quot;font-size: 20px&quot;&gt;switch&lt;br&gt;[1:0]&lt;br&gt;&lt;/font&gt;" style="rounded=1;whiteSpace=wrap;html=1;strokeColor=none;fillColor=none;" vertex="1" parent="1">
          <mxGeometry x="60" y="430" width="70" height="60" as="geometry" />
        </mxCell>
        <mxCell id="HOddscPRWS1l2fwZ3m95-399" style="edgeStyle=orthogonalEdgeStyle;rounded=0;orthogonalLoop=1;jettySize=auto;html=1;exitX=1;exitY=0.5;exitDx=0;exitDy=0;entryX=0;entryY=1;entryDx=0;entryDy=0;fontSize=20;" edge="1" parent="1" source="HOddscPRWS1l2fwZ3m95-9" target="HOddscPRWS1l2fwZ3m95-309">
          <mxGeometry relative="1" as="geometry">
            <Array as="points">
              <mxPoint x="1200" y="570" />
              <mxPoint x="1200" y="390" />
            </Array>
          </mxGeometry>
        </mxCell>
        <mxCell id="HOddscPRWS1l2fwZ3m95-9" value="&lt;font style=&quot;font-size: 20px&quot;&gt;switch_alarm&lt;br&gt;&lt;/font&gt;" style="rounded=1;whiteSpace=wrap;html=1;strokeColor=none;fillColor=none;" vertex="1" parent="1">
          <mxGeometry x="30" y="540" width="130" height="60" as="geometry" />
        </mxCell>
        <mxCell id="HOddscPRWS1l2fwZ3m95-14" value="" style="edgeStyle=orthogonalEdgeStyle;rounded=0;orthogonalLoop=1;jettySize=auto;html=1;fontSize=20;" edge="1" parent="1" source="HOddscPRWS1l2fwZ3m95-10" target="HOddscPRWS1l2fwZ3m95-13">
          <mxGeometry relative="1" as="geometry" />
        </mxCell>
        <mxCell id="HOddscPRWS1l2fwZ3m95-10" value="&lt;font style=&quot;font-size: 20px&quot;&gt;former&lt;br&gt;&lt;/font&gt;" style="rounded=1;whiteSpace=wrap;html=1;strokeColor=none;fillColor=none;" vertex="1" parent="1">
          <mxGeometry x="50" y="650" width="90" height="60" as="geometry" />
        </mxCell>
        <mxCell id="HOddscPRWS1l2fwZ3m95-16" value="" style="edgeStyle=orthogonalEdgeStyle;rounded=0;orthogonalLoop=1;jettySize=auto;html=1;fontSize=20;" edge="1" parent="1" source="HOddscPRWS1l2fwZ3m95-11" target="HOddscPRWS1l2fwZ3m95-15">
          <mxGeometry relative="1" as="geometry" />
        </mxCell>
        <mxCell id="HOddscPRWS1l2fwZ3m95-11" value="&lt;font style=&quot;font-size: 20px&quot;&gt;latter&lt;br&gt;&lt;/font&gt;" style="rounded=1;whiteSpace=wrap;html=1;strokeColor=none;fillColor=none;" vertex="1" parent="1">
          <mxGeometry x="50" y="760" width="90" height="60" as="geometry" />
        </mxCell>
        <mxCell id="HOddscPRWS1l2fwZ3m95-18" value="" style="edgeStyle=orthogonalEdgeStyle;rounded=0;orthogonalLoop=1;jettySize=auto;html=1;fontSize=20;" edge="1" parent="1" source="HOddscPRWS1l2fwZ3m95-12" target="HOddscPRWS1l2fwZ3m95-17">
          <mxGeometry relative="1" as="geometry" />
        </mxCell>
        <mxCell id="HOddscPRWS1l2fwZ3m95-12" value="&lt;font style=&quot;font-size: 20px&quot;&gt;mode&lt;br&gt;&lt;/font&gt;" style="rounded=1;whiteSpace=wrap;html=1;strokeColor=none;fillColor=none;" vertex="1" parent="1">
          <mxGeometry x="50" y="870" width="90" height="60" as="geometry" />
        </mxCell>
        <mxCell id="HOddscPRWS1l2fwZ3m95-20" value="" style="edgeStyle=orthogonalEdgeStyle;rounded=0;orthogonalLoop=1;jettySize=auto;html=1;fontSize=20;" edge="1" parent="1" source="HOddscPRWS1l2fwZ3m95-13" target="HOddscPRWS1l2fwZ3m95-19">
          <mxGeometry relative="1" as="geometry" />
        </mxCell>
        <mxCell id="HOddscPRWS1l2fwZ3m95-13" value="push_debounced&lt;br&gt;Upd_f" style="rounded=1;whiteSpace=wrap;html=1;fontSize=20;fillColor=none;" vertex="1" parent="1">
          <mxGeometry x="205" y="650" width="175" height="60" as="geometry" />
        </mxCell>
        <mxCell id="HOddscPRWS1l2fwZ3m95-22" value="" style="edgeStyle=orthogonalEdgeStyle;rounded=0;orthogonalLoop=1;jettySize=auto;html=1;fontSize=20;" edge="1" parent="1" source="HOddscPRWS1l2fwZ3m95-15" target="HOddscPRWS1l2fwZ3m95-21">
          <mxGeometry relative="1" as="geometry" />
        </mxCell>
        <mxCell id="HOddscPRWS1l2fwZ3m95-15" value="&lt;span&gt;push_debounced&lt;/span&gt;&lt;br&gt;&lt;span&gt;Upd_l&lt;/span&gt;" style="rounded=1;whiteSpace=wrap;html=1;fontSize=20;fillColor=none;" vertex="1" parent="1">
          <mxGeometry x="205" y="760" width="175" height="60" as="geometry" />
        </mxCell>
        <mxCell id="HOddscPRWS1l2fwZ3m95-24" value="" style="edgeStyle=orthogonalEdgeStyle;rounded=0;orthogonalLoop=1;jettySize=auto;html=1;fontSize=20;" edge="1" parent="1" source="HOddscPRWS1l2fwZ3m95-17" target="HOddscPRWS1l2fwZ3m95-23">
          <mxGeometry relative="1" as="geometry" />
        </mxCell>
        <mxCell id="HOddscPRWS1l2fwZ3m95-17" value="&lt;span&gt;push_debounced&lt;/span&gt;&lt;br&gt;&lt;span&gt;Upd_m&lt;/span&gt;" style="rounded=1;whiteSpace=wrap;html=1;fontSize=20;fillColor=none;" vertex="1" parent="1">
          <mxGeometry x="205" y="870" width="175" height="60" as="geometry" />
        </mxCell>
        <mxCell id="HOddscPRWS1l2fwZ3m95-235" style="edgeStyle=orthogonalEdgeStyle;rounded=0;orthogonalLoop=1;jettySize=auto;html=1;exitX=1;exitY=0.5;exitDx=0;exitDy=0;entryX=1;entryY=0.25;entryDx=0;entryDy=0;fontSize=20;" edge="1" parent="1" source="HOddscPRWS1l2fwZ3m95-19" target="HOddscPRWS1l2fwZ3m95-120">
          <mxGeometry relative="1" as="geometry">
            <Array as="points">
              <mxPoint x="1550" y="680" />
              <mxPoint x="1550" y="1375" />
            </Array>
          </mxGeometry>
        </mxCell>
        <mxCell id="HOddscPRWS1l2fwZ3m95-19" value="one_pulse&lt;br&gt;Uop_f" style="whiteSpace=wrap;html=1;fontSize=20;fillColor=none;rounded=1;" vertex="1" parent="1">
          <mxGeometry x="487.5" y="650" width="120" height="60" as="geometry" />
        </mxCell>
        <mxCell id="HOddscPRWS1l2fwZ3m95-236" style="edgeStyle=orthogonalEdgeStyle;rounded=0;orthogonalLoop=1;jettySize=auto;html=1;exitX=1;exitY=0.5;exitDx=0;exitDy=0;entryX=1;entryY=0.75;entryDx=0;entryDy=0;fontSize=20;" edge="1" parent="1" source="HOddscPRWS1l2fwZ3m95-21" target="HOddscPRWS1l2fwZ3m95-120">
          <mxGeometry relative="1" as="geometry">
            <Array as="points">
              <mxPoint x="1580" y="790" />
              <mxPoint x="1580" y="1405" />
            </Array>
          </mxGeometry>
        </mxCell>
        <mxCell id="HOddscPRWS1l2fwZ3m95-21" value="&lt;span&gt;one_pulse&lt;/span&gt;&lt;br&gt;&lt;span&gt;Uop_l&lt;/span&gt;" style="whiteSpace=wrap;html=1;fontSize=20;fillColor=none;rounded=1;" vertex="1" parent="1">
          <mxGeometry x="487.5" y="760" width="120" height="60" as="geometry" />
        </mxCell>
        <mxCell id="HOddscPRWS1l2fwZ3m95-340" style="edgeStyle=orthogonalEdgeStyle;rounded=0;orthogonalLoop=1;jettySize=auto;html=1;exitX=1;exitY=0.5;exitDx=0;exitDy=0;entryX=0;entryY=0.75;entryDx=0;entryDy=0;fontSize=20;" edge="1" parent="1" source="HOddscPRWS1l2fwZ3m95-23" target="HOddscPRWS1l2fwZ3m95-309">
          <mxGeometry relative="1" as="geometry" />
        </mxCell>
        <mxCell id="HOddscPRWS1l2fwZ3m95-23" value="&lt;span&gt;one_pulse&lt;/span&gt;&lt;br&gt;&lt;span&gt;Uop_m&lt;/span&gt;" style="whiteSpace=wrap;html=1;fontSize=20;fillColor=none;rounded=1;" vertex="1" parent="1">
          <mxGeometry x="487.5" y="870" width="120" height="60" as="geometry" />
        </mxCell>
        <mxCell id="HOddscPRWS1l2fwZ3m95-28" value="" style="endArrow=classic;html=1;rounded=0;fontSize=20;" edge="1" parent="1">
          <mxGeometry width="50" height="50" relative="1" as="geometry">
            <mxPoint x="-60" y="840" as="sourcePoint" />
            <mxPoint x="293" y="820" as="targetPoint" />
            <Array as="points">
              <mxPoint x="293" y="840" />
            </Array>
          </mxGeometry>
        </mxCell>
        <mxCell id="HOddscPRWS1l2fwZ3m95-29" value="" style="endArrow=classic;html=1;rounded=0;fontSize=20;entryX=0.5;entryY=1;entryDx=0;entryDy=0;" edge="1" parent="1" target="HOddscPRWS1l2fwZ3m95-21">
          <mxGeometry width="50" height="50" relative="1" as="geometry">
            <mxPoint x="290" y="840" as="sourcePoint" />
            <mxPoint x="340" y="720" as="targetPoint" />
            <Array as="points">
              <mxPoint x="548" y="840" />
            </Array>
          </mxGeometry>
        </mxCell>
        <mxCell id="HOddscPRWS1l2fwZ3m95-30" value="" style="endArrow=classic;html=1;rounded=0;fontSize=20;" edge="1" parent="1">
          <mxGeometry width="50" height="50" relative="1" as="geometry">
            <mxPoint x="-60" y="730" as="sourcePoint" />
            <mxPoint x="293" y="710" as="targetPoint" />
            <Array as="points">
              <mxPoint x="293" y="730" />
            </Array>
          </mxGeometry>
        </mxCell>
        <mxCell id="HOddscPRWS1l2fwZ3m95-31" value="" style="endArrow=classic;html=1;rounded=0;fontSize=20;entryX=0.5;entryY=1;entryDx=0;entryDy=0;" edge="1" parent="1">
          <mxGeometry width="50" height="50" relative="1" as="geometry">
            <mxPoint x="290" y="730" as="sourcePoint" />
            <mxPoint x="547.5" y="710" as="targetPoint" />
            <Array as="points">
              <mxPoint x="548" y="730" />
            </Array>
          </mxGeometry>
        </mxCell>
        <mxCell id="HOddscPRWS1l2fwZ3m95-35" value="timedisplay Utd&lt;br&gt;(timedisplay.v)" style="rounded=1;whiteSpace=wrap;html=1;fontSize=20;fillColor=none;" vertex="1" parent="1">
          <mxGeometry x="20" y="1000" width="690" height="60" as="geometry" />
        </mxCell>
        <mxCell id="HOddscPRWS1l2fwZ3m95-38" value="sec0" style="rounded=1;whiteSpace=wrap;html=1;fontSize=20;fillColor=none;" vertex="1" parent="1">
          <mxGeometry x="20" y="1080" width="60" height="60" as="geometry" />
        </mxCell>
        <mxCell id="HOddscPRWS1l2fwZ3m95-40" value="sec1" style="rounded=1;whiteSpace=wrap;html=1;fontSize=20;fillColor=none;" vertex="1" parent="1">
          <mxGeometry x="90" y="1080" width="60" height="60" as="geometry" />
        </mxCell>
        <mxCell id="HOddscPRWS1l2fwZ3m95-417" style="edgeStyle=orthogonalEdgeStyle;rounded=0;orthogonalLoop=1;jettySize=auto;html=1;exitX=0.75;exitY=1;exitDx=0;exitDy=0;entryX=0;entryY=1;entryDx=0;entryDy=0;fontSize=20;" edge="1" parent="1" source="HOddscPRWS1l2fwZ3m95-41" target="HOddscPRWS1l2fwZ3m95-63">
          <mxGeometry relative="1" as="geometry">
            <Array as="points">
              <mxPoint x="205" y="1150" />
              <mxPoint x="730" y="1150" />
            </Array>
          </mxGeometry>
        </mxCell>
        <mxCell id="HOddscPRWS1l2fwZ3m95-41" value="min0" style="rounded=1;whiteSpace=wrap;html=1;fontSize=20;fillColor=none;" vertex="1" parent="1">
          <mxGeometry x="160" y="1080" width="60" height="60" as="geometry" />
        </mxCell>
        <mxCell id="HOddscPRWS1l2fwZ3m95-418" style="edgeStyle=orthogonalEdgeStyle;rounded=0;orthogonalLoop=1;jettySize=auto;html=1;exitX=0.75;exitY=1;exitDx=0;exitDy=0;fontSize=20;" edge="1" parent="1" source="HOddscPRWS1l2fwZ3m95-42">
          <mxGeometry relative="1" as="geometry">
            <mxPoint x="730" y="1060" as="targetPoint" />
            <Array as="points">
              <mxPoint x="275" y="1150" />
              <mxPoint x="730" y="1150" />
            </Array>
          </mxGeometry>
        </mxCell>
        <mxCell id="HOddscPRWS1l2fwZ3m95-42" value="min1" style="rounded=1;whiteSpace=wrap;html=1;fontSize=20;fillColor=none;" vertex="1" parent="1">
          <mxGeometry x="230" y="1080" width="60" height="60" as="geometry" />
        </mxCell>
        <mxCell id="HOddscPRWS1l2fwZ3m95-419" style="edgeStyle=orthogonalEdgeStyle;rounded=0;orthogonalLoop=1;jettySize=auto;html=1;exitX=0.75;exitY=1;exitDx=0;exitDy=0;fontSize=20;" edge="1" parent="1" source="HOddscPRWS1l2fwZ3m95-43">
          <mxGeometry relative="1" as="geometry">
            <mxPoint x="730" y="1060" as="targetPoint" />
            <Array as="points">
              <mxPoint x="345" y="1150" />
              <mxPoint x="730" y="1150" />
            </Array>
          </mxGeometry>
        </mxCell>
        <mxCell id="HOddscPRWS1l2fwZ3m95-43" value="hou0" style="rounded=1;whiteSpace=wrap;html=1;fontSize=20;fillColor=none;" vertex="1" parent="1">
          <mxGeometry x="300" y="1080" width="60" height="60" as="geometry" />
        </mxCell>
        <mxCell id="HOddscPRWS1l2fwZ3m95-420" style="edgeStyle=orthogonalEdgeStyle;rounded=0;orthogonalLoop=1;jettySize=auto;html=1;exitX=0.75;exitY=1;exitDx=0;exitDy=0;fontSize=20;" edge="1" parent="1" source="HOddscPRWS1l2fwZ3m95-44">
          <mxGeometry relative="1" as="geometry">
            <mxPoint x="730" y="1060" as="targetPoint" />
            <Array as="points">
              <mxPoint x="415" y="1150" />
              <mxPoint x="730" y="1150" />
            </Array>
          </mxGeometry>
        </mxCell>
        <mxCell id="HOddscPRWS1l2fwZ3m95-44" value="hou1" style="rounded=1;whiteSpace=wrap;html=1;fontSize=20;fillColor=none;" vertex="1" parent="1">
          <mxGeometry x="370" y="1080" width="60" height="60" as="geometry" />
        </mxCell>
        <mxCell id="HOddscPRWS1l2fwZ3m95-45" value="yea0" style="rounded=1;whiteSpace=wrap;html=1;fontSize=20;fillColor=none;" vertex="1" parent="1">
          <mxGeometry x="437.5" y="1080" width="62.5" height="60" as="geometry" />
        </mxCell>
        <mxCell id="HOddscPRWS1l2fwZ3m95-46" value="yea1" style="rounded=1;whiteSpace=wrap;html=1;fontSize=20;fillColor=none;" vertex="1" parent="1">
          <mxGeometry x="507.5" y="1080" width="62.5" height="60" as="geometry" />
        </mxCell>
        <mxCell id="HOddscPRWS1l2fwZ3m95-47" value="yea2" style="rounded=1;whiteSpace=wrap;html=1;fontSize=20;fillColor=none;" vertex="1" parent="1">
          <mxGeometry x="577.5" y="1080" width="62.5" height="60" as="geometry" />
        </mxCell>
        <mxCell id="HOddscPRWS1l2fwZ3m95-48" value="yea3" style="rounded=1;whiteSpace=wrap;html=1;fontSize=20;fillColor=none;" vertex="1" parent="1">
          <mxGeometry x="650" y="1080" width="60" height="60" as="geometry" />
        </mxCell>
        <mxCell id="HOddscPRWS1l2fwZ3m95-49" value="" style="endArrow=classic;html=1;rounded=0;fontSize=20;entryX=0.5;entryY=0;entryDx=0;entryDy=0;" edge="1" parent="1" target="HOddscPRWS1l2fwZ3m95-38">
          <mxGeometry width="50" height="50" relative="1" as="geometry">
            <mxPoint x="50" y="1060" as="sourcePoint" />
            <mxPoint x="250" y="910" as="targetPoint" />
          </mxGeometry>
        </mxCell>
        <mxCell id="HOddscPRWS1l2fwZ3m95-51" value="" style="endArrow=classic;html=1;rounded=0;fontSize=20;" edge="1" parent="1">
          <mxGeometry width="50" height="50" relative="1" as="geometry">
            <mxPoint x="120" y="1060" as="sourcePoint" />
            <mxPoint x="120" y="1080" as="targetPoint" />
          </mxGeometry>
        </mxCell>
        <mxCell id="HOddscPRWS1l2fwZ3m95-52" value="" style="endArrow=classic;html=1;rounded=0;fontSize=20;entryX=0.5;entryY=0;entryDx=0;entryDy=0;" edge="1" parent="1" target="HOddscPRWS1l2fwZ3m95-41">
          <mxGeometry width="50" height="50" relative="1" as="geometry">
            <mxPoint x="190" y="1060" as="sourcePoint" />
            <mxPoint x="130" y="1090" as="targetPoint" />
          </mxGeometry>
        </mxCell>
        <mxCell id="HOddscPRWS1l2fwZ3m95-53" value="" style="endArrow=classic;html=1;rounded=0;fontSize=20;entryX=0.5;entryY=0;entryDx=0;entryDy=0;" edge="1" parent="1" target="HOddscPRWS1l2fwZ3m95-42">
          <mxGeometry width="50" height="50" relative="1" as="geometry">
            <mxPoint x="260" y="1060" as="sourcePoint" />
            <mxPoint x="200" y="1090" as="targetPoint" />
          </mxGeometry>
        </mxCell>
        <mxCell id="HOddscPRWS1l2fwZ3m95-54" value="" style="endArrow=classic;html=1;rounded=0;fontSize=20;entryX=0.5;entryY=0;entryDx=0;entryDy=0;" edge="1" parent="1" target="HOddscPRWS1l2fwZ3m95-43">
          <mxGeometry width="50" height="50" relative="1" as="geometry">
            <mxPoint x="330" y="1060" as="sourcePoint" />
            <mxPoint x="210" y="1100" as="targetPoint" />
          </mxGeometry>
        </mxCell>
        <mxCell id="HOddscPRWS1l2fwZ3m95-55" value="" style="endArrow=classic;html=1;rounded=0;fontSize=20;entryX=0.5;entryY=0;entryDx=0;entryDy=0;exitX=0.551;exitY=0.995;exitDx=0;exitDy=0;exitPerimeter=0;" edge="1" parent="1" source="HOddscPRWS1l2fwZ3m95-35" target="HOddscPRWS1l2fwZ3m95-44">
          <mxGeometry width="50" height="50" relative="1" as="geometry">
            <mxPoint x="340" y="1070" as="sourcePoint" />
            <mxPoint x="340" y="1090" as="targetPoint" />
          </mxGeometry>
        </mxCell>
        <mxCell id="HOddscPRWS1l2fwZ3m95-56" value="" style="endArrow=classic;html=1;rounded=0;fontSize=20;entryX=0.5;entryY=0;entryDx=0;entryDy=0;exitX=0.65;exitY=0.995;exitDx=0;exitDy=0;exitPerimeter=0;" edge="1" parent="1" source="HOddscPRWS1l2fwZ3m95-35" target="HOddscPRWS1l2fwZ3m95-45">
          <mxGeometry width="50" height="50" relative="1" as="geometry">
            <mxPoint x="410.19000000000005" y="1069.6999999999998" as="sourcePoint" />
            <mxPoint x="410" y="1090" as="targetPoint" />
          </mxGeometry>
        </mxCell>
        <mxCell id="HOddscPRWS1l2fwZ3m95-58" value="" style="endArrow=classic;html=1;rounded=0;fontSize=20;entryX=0.5;entryY=0;entryDx=0;entryDy=0;" edge="1" parent="1" target="HOddscPRWS1l2fwZ3m95-46">
          <mxGeometry width="50" height="50" relative="1" as="geometry">
            <mxPoint x="539" y="1060" as="sourcePoint" />
            <mxPoint x="478.75" y="1090" as="targetPoint" />
          </mxGeometry>
        </mxCell>
        <mxCell id="HOddscPRWS1l2fwZ3m95-60" value="" style="endArrow=classic;html=1;rounded=0;fontSize=20;entryX=0.5;entryY=0;entryDx=0;entryDy=0;exitX=0.853;exitY=0.995;exitDx=0;exitDy=0;exitPerimeter=0;" edge="1" parent="1" source="HOddscPRWS1l2fwZ3m95-35" target="HOddscPRWS1l2fwZ3m95-47">
          <mxGeometry width="50" height="50" relative="1" as="geometry">
            <mxPoint x="610" y="1060" as="sourcePoint" />
            <mxPoint x="548.75" y="1090" as="targetPoint" />
          </mxGeometry>
        </mxCell>
        <mxCell id="HOddscPRWS1l2fwZ3m95-61" value="" style="endArrow=classic;html=1;rounded=0;fontSize=20;entryX=0.5;entryY=0;entryDx=0;entryDy=0;" edge="1" parent="1" target="HOddscPRWS1l2fwZ3m95-48">
          <mxGeometry width="50" height="50" relative="1" as="geometry">
            <mxPoint x="680" y="1060" as="sourcePoint" />
            <mxPoint x="558.75" y="1100" as="targetPoint" />
          </mxGeometry>
        </mxCell>
        <mxCell id="HOddscPRWS1l2fwZ3m95-63" value="alarm&lt;br&gt;(alarm.v)" style="rounded=1;whiteSpace=wrap;html=1;fontSize=20;fillColor=none;" vertex="1" parent="1">
          <mxGeometry x="730" y="1000" width="590" height="60" as="geometry" />
        </mxCell>
        <mxCell id="HOddscPRWS1l2fwZ3m95-70" value="multiplexer" style="rounded=1;whiteSpace=wrap;html=1;fontSize=20;fillColor=none;" vertex="1" parent="1">
          <mxGeometry x="20" y="1160" width="690" height="60" as="geometry" />
        </mxCell>
        <mxCell id="HOddscPRWS1l2fwZ3m95-72" value="" style="endArrow=classic;html=1;rounded=0;fontSize=20;entryX=0.5;entryY=0;entryDx=0;entryDy=0;" edge="1" parent="1">
          <mxGeometry width="50" height="50" relative="1" as="geometry">
            <mxPoint x="49.88" y="1140.3" as="sourcePoint" />
            <mxPoint x="49.88" y="1160.3" as="targetPoint" />
          </mxGeometry>
        </mxCell>
        <mxCell id="HOddscPRWS1l2fwZ3m95-73" value="" style="endArrow=classic;html=1;rounded=0;fontSize=20;" edge="1" parent="1">
          <mxGeometry width="50" height="50" relative="1" as="geometry">
            <mxPoint x="119.88" y="1140.3" as="sourcePoint" />
            <mxPoint x="119.88" y="1160.3" as="targetPoint" />
          </mxGeometry>
        </mxCell>
        <mxCell id="HOddscPRWS1l2fwZ3m95-74" value="" style="endArrow=classic;html=1;rounded=0;fontSize=20;entryX=0.5;entryY=0;entryDx=0;entryDy=0;" edge="1" parent="1">
          <mxGeometry width="50" height="50" relative="1" as="geometry">
            <mxPoint x="189.88" y="1140.3" as="sourcePoint" />
            <mxPoint x="189.88" y="1160.3" as="targetPoint" />
          </mxGeometry>
        </mxCell>
        <mxCell id="HOddscPRWS1l2fwZ3m95-75" value="" style="endArrow=classic;html=1;rounded=0;fontSize=20;entryX=0.5;entryY=0;entryDx=0;entryDy=0;" edge="1" parent="1">
          <mxGeometry width="50" height="50" relative="1" as="geometry">
            <mxPoint x="259.88" y="1140.3" as="sourcePoint" />
            <mxPoint x="259.88" y="1160.3" as="targetPoint" />
          </mxGeometry>
        </mxCell>
        <mxCell id="HOddscPRWS1l2fwZ3m95-76" value="" style="endArrow=classic;html=1;rounded=0;fontSize=20;entryX=0.5;entryY=0;entryDx=0;entryDy=0;" edge="1" parent="1">
          <mxGeometry width="50" height="50" relative="1" as="geometry">
            <mxPoint x="329.88" y="1140.3" as="sourcePoint" />
            <mxPoint x="329.88" y="1160.3" as="targetPoint" />
          </mxGeometry>
        </mxCell>
        <mxCell id="HOddscPRWS1l2fwZ3m95-77" value="" style="endArrow=classic;html=1;rounded=0;fontSize=20;entryX=0.5;entryY=0;entryDx=0;entryDy=0;exitX=0.551;exitY=0.995;exitDx=0;exitDy=0;exitPerimeter=0;" edge="1" parent="1">
          <mxGeometry width="50" height="50" relative="1" as="geometry">
            <mxPoint x="400.07000000000005" y="1140" as="sourcePoint" />
            <mxPoint x="399.88" y="1160.3" as="targetPoint" />
          </mxGeometry>
        </mxCell>
        <mxCell id="HOddscPRWS1l2fwZ3m95-78" value="" style="endArrow=classic;html=1;rounded=0;fontSize=20;entryX=0.5;entryY=0;entryDx=0;entryDy=0;exitX=0.65;exitY=0.995;exitDx=0;exitDy=0;exitPerimeter=0;" edge="1" parent="1">
          <mxGeometry width="50" height="50" relative="1" as="geometry">
            <mxPoint x="468.3800000000002" y="1140" as="sourcePoint" />
            <mxPoint x="468.63" y="1160.3" as="targetPoint" />
          </mxGeometry>
        </mxCell>
        <mxCell id="HOddscPRWS1l2fwZ3m95-79" value="" style="endArrow=classic;html=1;rounded=0;fontSize=20;entryX=0.5;entryY=0;entryDx=0;entryDy=0;" edge="1" parent="1">
          <mxGeometry width="50" height="50" relative="1" as="geometry">
            <mxPoint x="538.88" y="1140.3" as="sourcePoint" />
            <mxPoint x="538.63" y="1160.3" as="targetPoint" />
          </mxGeometry>
        </mxCell>
        <mxCell id="HOddscPRWS1l2fwZ3m95-80" value="" style="endArrow=classic;html=1;rounded=0;fontSize=20;entryX=0.5;entryY=0;entryDx=0;entryDy=0;exitX=0.853;exitY=0.995;exitDx=0;exitDy=0;exitPerimeter=0;" edge="1" parent="1">
          <mxGeometry width="50" height="50" relative="1" as="geometry">
            <mxPoint x="608.4500000000002" y="1140" as="sourcePoint" />
            <mxPoint x="608.63" y="1160.3" as="targetPoint" />
          </mxGeometry>
        </mxCell>
        <mxCell id="HOddscPRWS1l2fwZ3m95-81" value="" style="endArrow=classic;html=1;rounded=0;fontSize=20;entryX=0.5;entryY=0;entryDx=0;entryDy=0;" edge="1" parent="1">
          <mxGeometry width="50" height="50" relative="1" as="geometry">
            <mxPoint x="679.88" y="1140.3" as="sourcePoint" />
            <mxPoint x="679.88" y="1160.3" as="targetPoint" />
          </mxGeometry>
        </mxCell>
        <mxCell id="HOddscPRWS1l2fwZ3m95-100" value="" style="group" vertex="1" connectable="0" parent="1">
          <mxGeometry x="730" y="1079.7" width="340" height="80.29999999999995" as="geometry" />
        </mxCell>
        <mxCell id="HOddscPRWS1l2fwZ3m95-310" value="" style="group" vertex="1" connectable="0" parent="HOddscPRWS1l2fwZ3m95-100">
          <mxGeometry y="-19.700000000000045" width="340" height="79.70000000000005" as="geometry" />
        </mxCell>
        <mxCell id="HOddscPRWS1l2fwZ3m95-83" value="alarm_min0" style="rounded=1;whiteSpace=wrap;html=1;fontSize=20;fillColor=none;" vertex="1" parent="HOddscPRWS1l2fwZ3m95-310">
          <mxGeometry y="19.700000000000045" width="140" height="60" as="geometry" />
        </mxCell>
        <mxCell id="HOddscPRWS1l2fwZ3m95-87" value="" style="endArrow=classic;html=1;rounded=0;fontSize=20;entryX=0.5;entryY=0;entryDx=0;entryDy=0;" edge="1" parent="HOddscPRWS1l2fwZ3m95-310" target="HOddscPRWS1l2fwZ3m95-83">
          <mxGeometry width="50" height="50" relative="1" as="geometry">
            <mxPoint x="70" as="sourcePoint" />
            <mxPoint x="-30" y="29.700000000000045" as="targetPoint" />
          </mxGeometry>
        </mxCell>
        <mxCell id="HOddscPRWS1l2fwZ3m95-101" value="alarm_min1" style="rounded=1;whiteSpace=wrap;html=1;fontSize=20;fillColor=none;" vertex="1" parent="1">
          <mxGeometry x="880" y="1079.7" width="140" height="60" as="geometry" />
        </mxCell>
        <mxCell id="HOddscPRWS1l2fwZ3m95-102" value="" style="endArrow=classic;html=1;rounded=0;fontSize=20;entryX=0.5;entryY=0;entryDx=0;entryDy=0;exitX=0.13;exitY=0.988;exitDx=0;exitDy=0;exitPerimeter=0;" edge="1" parent="1" target="HOddscPRWS1l2fwZ3m95-101">
          <mxGeometry width="50" height="50" relative="1" as="geometry">
            <mxPoint x="950.2" y="1059.28" as="sourcePoint" />
            <mxPoint x="120" y="10" as="targetPoint" />
          </mxGeometry>
        </mxCell>
        <mxCell id="HOddscPRWS1l2fwZ3m95-103" value="" style="endArrow=classic;html=1;rounded=0;fontSize=20;exitX=0.5;exitY=1;exitDx=0;exitDy=0;entryX=0.715;entryY=-0.009;entryDx=0;entryDy=0;entryPerimeter=0;" edge="1" parent="1" source="HOddscPRWS1l2fwZ3m95-101" target="HOddscPRWS1l2fwZ3m95-111">
          <mxGeometry width="50" height="50" relative="1" as="geometry">
            <mxPoint x="179.8800000000001" y="60.299999999999955" as="sourcePoint" />
            <mxPoint x="949.9999999999998" y="1159.9999999999998" as="targetPoint" />
          </mxGeometry>
        </mxCell>
        <mxCell id="HOddscPRWS1l2fwZ3m95-105" value="alarm_hou0" style="rounded=1;whiteSpace=wrap;html=1;fontSize=20;fillColor=none;" vertex="1" parent="1">
          <mxGeometry x="1030" y="1079.7" width="140" height="60" as="geometry" />
        </mxCell>
        <mxCell id="HOddscPRWS1l2fwZ3m95-106" value="" style="endArrow=classic;html=1;rounded=0;fontSize=20;entryX=0.5;entryY=0;entryDx=0;entryDy=0;exitX=0.13;exitY=0.988;exitDx=0;exitDy=0;exitPerimeter=0;" edge="1" parent="1" target="HOddscPRWS1l2fwZ3m95-105">
          <mxGeometry width="50" height="50" relative="1" as="geometry">
            <mxPoint x="1100.1999999999998" y="1059.28" as="sourcePoint" />
            <mxPoint x="270" y="10" as="targetPoint" />
          </mxGeometry>
        </mxCell>
        <mxCell id="HOddscPRWS1l2fwZ3m95-107" value="" style="endArrow=classic;html=1;rounded=0;fontSize=20;exitX=0.5;exitY=1;exitDx=0;exitDy=0;entryX=0.831;entryY=-0.009;entryDx=0;entryDy=0;entryPerimeter=0;" edge="1" parent="1" source="HOddscPRWS1l2fwZ3m95-105" target="HOddscPRWS1l2fwZ3m95-111">
          <mxGeometry width="50" height="50" relative="1" as="geometry">
            <mxPoint x="329.8800000000001" y="60.299999999999955" as="sourcePoint" />
            <mxPoint x="1100" y="1159.9999999999998" as="targetPoint" />
          </mxGeometry>
        </mxCell>
        <mxCell id="HOddscPRWS1l2fwZ3m95-108" value="alarm_hou1" style="rounded=1;whiteSpace=wrap;html=1;fontSize=20;fillColor=none;" vertex="1" parent="1">
          <mxGeometry x="1180" y="1080.42" width="140" height="60" as="geometry" />
        </mxCell>
        <mxCell id="HOddscPRWS1l2fwZ3m95-109" value="" style="endArrow=classic;html=1;rounded=0;fontSize=20;entryX=0.5;entryY=0;entryDx=0;entryDy=0;exitX=0.13;exitY=0.988;exitDx=0;exitDy=0;exitPerimeter=0;" edge="1" parent="1" target="HOddscPRWS1l2fwZ3m95-108">
          <mxGeometry width="50" height="50" relative="1" as="geometry">
            <mxPoint x="1250.1999999999998" y="1060" as="sourcePoint" />
            <mxPoint x="420" y="10.719999999999999" as="targetPoint" />
          </mxGeometry>
        </mxCell>
        <mxCell id="HOddscPRWS1l2fwZ3m95-110" value="" style="endArrow=classic;html=1;rounded=0;fontSize=20;exitX=0.5;exitY=1;exitDx=0;exitDy=0;entryX=0.947;entryY=-0.001;entryDx=0;entryDy=0;entryPerimeter=0;" edge="1" parent="1" source="HOddscPRWS1l2fwZ3m95-108" target="HOddscPRWS1l2fwZ3m95-111">
          <mxGeometry width="50" height="50" relative="1" as="geometry">
            <mxPoint x="479.8800000000001" y="61.01999999999995" as="sourcePoint" />
            <mxPoint x="1250" y="1160.7199999999998" as="targetPoint" />
          </mxGeometry>
        </mxCell>
        <mxCell id="HOddscPRWS1l2fwZ3m95-111" value="multiplexer" style="rounded=1;whiteSpace=wrap;html=1;fontSize=20;fillColor=none;" vertex="1" parent="1">
          <mxGeometry x="20" y="1260" width="1300" height="60" as="geometry" />
        </mxCell>
        <mxCell id="HOddscPRWS1l2fwZ3m95-115" value="" style="endArrow=classic;html=1;rounded=0;fontSize=20;entryX=0.398;entryY=-0.004;entryDx=0;entryDy=0;exitX=0.75;exitY=1;exitDx=0;exitDy=0;entryPerimeter=0;" edge="1" parent="1" source="HOddscPRWS1l2fwZ3m95-70" target="HOddscPRWS1l2fwZ3m95-111">
          <mxGeometry width="50" height="50" relative="1" as="geometry">
            <mxPoint x="548.8800000000001" y="1150.3" as="sourcePoint" />
            <mxPoint x="548.6300000000001" y="1170.3" as="targetPoint" />
          </mxGeometry>
        </mxCell>
        <mxCell id="HOddscPRWS1l2fwZ3m95-116" value="" style="endArrow=classic;html=1;rounded=0;fontSize=20;entryX=0.293;entryY=-0.004;entryDx=0;entryDy=0;exitX=0.552;exitY=1.01;exitDx=0;exitDy=0;exitPerimeter=0;entryPerimeter=0;" edge="1" parent="1" source="HOddscPRWS1l2fwZ3m95-70" target="HOddscPRWS1l2fwZ3m95-111">
          <mxGeometry width="50" height="50" relative="1" as="geometry">
            <mxPoint x="410.07000000000016" y="1150.0000000000002" as="sourcePoint" />
            <mxPoint x="409.8800000000001" y="1170.3" as="targetPoint" />
          </mxGeometry>
        </mxCell>
        <mxCell id="HOddscPRWS1l2fwZ3m95-117" value="" style="endArrow=classic;html=1;rounded=0;fontSize=20;entryX=0.293;entryY=-0.004;entryDx=0;entryDy=0;exitX=0.552;exitY=1.01;exitDx=0;exitDy=0;exitPerimeter=0;entryPerimeter=0;" edge="1" parent="1">
          <mxGeometry width="50" height="50" relative="1" as="geometry">
            <mxPoint x="259.6300000000001" y="1220.8400000000001" as="sourcePoint" />
            <mxPoint x="259.6500000000001" y="1260.0000000000002" as="targetPoint" />
          </mxGeometry>
        </mxCell>
        <mxCell id="HOddscPRWS1l2fwZ3m95-118" value="" style="endArrow=classic;html=1;rounded=0;fontSize=20;entryX=0.293;entryY=-0.004;entryDx=0;entryDy=0;exitX=0.552;exitY=1.01;exitDx=0;exitDy=0;exitPerimeter=0;entryPerimeter=0;" edge="1" parent="1">
          <mxGeometry width="50" height="50" relative="1" as="geometry">
            <mxPoint x="119.63000000000011" y="1220.8400000000001" as="sourcePoint" />
            <mxPoint x="119.65000000000009" y="1260.0000000000002" as="targetPoint" />
          </mxGeometry>
        </mxCell>
        <mxCell id="HOddscPRWS1l2fwZ3m95-91" value="" style="endArrow=classic;html=1;rounded=0;fontSize=20;exitX=0.5;exitY=1;exitDx=0;exitDy=0;entryX=0.6;entryY=-0.017;entryDx=0;entryDy=0;entryPerimeter=0;" edge="1" parent="1" source="HOddscPRWS1l2fwZ3m95-83" target="HOddscPRWS1l2fwZ3m95-111">
          <mxGeometry width="50" height="50" relative="1" as="geometry">
            <mxPoint x="759.8800000000001" y="1140" as="sourcePoint" />
            <mxPoint x="800" y="1160" as="targetPoint" />
          </mxGeometry>
        </mxCell>
        <mxCell id="HOddscPRWS1l2fwZ3m95-120" value="unitset Usreg&lt;br&gt;(uniset.v)" style="rounded=1;whiteSpace=wrap;html=1;fontSize=20;fillColor=none;" vertex="1" parent="1">
          <mxGeometry x="22" y="1360" width="1300" height="60" as="geometry" />
        </mxCell>
        <mxCell id="HOddscPRWS1l2fwZ3m95-121" value="" style="endArrow=classic;html=1;rounded=0;fontSize=20;entryX=0.293;entryY=-0.004;entryDx=0;entryDy=0;exitX=0.552;exitY=1.01;exitDx=0;exitDy=0;exitPerimeter=0;entryPerimeter=0;" edge="1" parent="1">
          <mxGeometry width="50" height="50" relative="1" as="geometry">
            <mxPoint x="159.17000000000013" y="1320.8400000000001" as="sourcePoint" />
            <mxPoint x="159.1900000000001" y="1360.0000000000002" as="targetPoint" />
          </mxGeometry>
        </mxCell>
        <mxCell id="HOddscPRWS1l2fwZ3m95-122" value="" style="endArrow=classic;html=1;rounded=0;fontSize=20;" edge="1" parent="1">
          <mxGeometry width="50" height="50" relative="1" as="geometry">
            <mxPoint x="440" y="1320" as="sourcePoint" />
            <mxPoint x="440" y="1360" as="targetPoint" />
          </mxGeometry>
        </mxCell>
        <mxCell id="HOddscPRWS1l2fwZ3m95-123" value="" style="endArrow=classic;html=1;rounded=0;fontSize=20;entryX=0.293;entryY=-0.004;entryDx=0;entryDy=0;exitX=0.552;exitY=1.01;exitDx=0;exitDy=0;exitPerimeter=0;entryPerimeter=0;" edge="1" parent="1">
          <mxGeometry width="50" height="50" relative="1" as="geometry">
            <mxPoint x="920" y="1320.8400000000001" as="sourcePoint" />
            <mxPoint x="920.02" y="1360.0000000000002" as="targetPoint" />
          </mxGeometry>
        </mxCell>
        <mxCell id="HOddscPRWS1l2fwZ3m95-124" value="" style="endArrow=classic;html=1;rounded=0;fontSize=20;entryX=0.293;entryY=-0.004;entryDx=0;entryDy=0;exitX=0.552;exitY=1.01;exitDx=0;exitDy=0;exitPerimeter=0;entryPerimeter=0;" edge="1" parent="1">
          <mxGeometry width="50" height="50" relative="1" as="geometry">
            <mxPoint x="1200" y="1320.8400000000001" as="sourcePoint" />
            <mxPoint x="1200.02" y="1360" as="targetPoint" />
          </mxGeometry>
        </mxCell>
        <mxCell id="HOddscPRWS1l2fwZ3m95-125" value="q0" style="rounded=1;whiteSpace=wrap;html=1;fontSize=20;fillColor=none;" vertex="1" parent="1">
          <mxGeometry x="90" y="1439.7" width="140" height="60" as="geometry" />
        </mxCell>
        <mxCell id="HOddscPRWS1l2fwZ3m95-126" value="" style="endArrow=classic;html=1;rounded=0;fontSize=20;entryX=0.5;entryY=0;entryDx=0;entryDy=0;" edge="1" parent="1" target="HOddscPRWS1l2fwZ3m95-125">
          <mxGeometry width="50" height="50" relative="1" as="geometry">
            <mxPoint x="160" y="1419.9999999999998" as="sourcePoint" />
            <mxPoint x="-670" y="370" as="targetPoint" />
          </mxGeometry>
        </mxCell>
        <mxCell id="HOddscPRWS1l2fwZ3m95-127" value="" style="endArrow=classic;html=1;rounded=0;fontSize=20;exitX=0.5;exitY=1;exitDx=0;exitDy=0;entryX=0.203;entryY=0;entryDx=0;entryDy=0;entryPerimeter=0;" edge="1" parent="1" source="HOddscPRWS1l2fwZ3m95-125" target="HOddscPRWS1l2fwZ3m95-35">
          <mxGeometry width="50" height="50" relative="1" as="geometry">
            <mxPoint x="119.88000000000011" y="1500" as="sourcePoint" />
            <mxPoint x="404.7999572753906" y="1810" as="targetPoint" />
            <Array as="points">
              <mxPoint x="160" y="1660" />
              <mxPoint x="730" y="1660" />
              <mxPoint x="1440" y="1660" />
              <mxPoint x="1520" y="1660" />
              <mxPoint x="1520" y="1130" />
              <mxPoint x="1520" y="960" />
              <mxPoint x="1480" y="960" />
              <mxPoint x="300" y="960" />
              <mxPoint x="160" y="960" />
            </Array>
          </mxGeometry>
        </mxCell>
        <mxCell id="HOddscPRWS1l2fwZ3m95-128" value="q1" style="rounded=1;whiteSpace=wrap;html=1;fontSize=20;fillColor=none;" vertex="1" parent="1">
          <mxGeometry x="370" y="1439.7" width="140" height="60" as="geometry" />
        </mxCell>
        <mxCell id="HOddscPRWS1l2fwZ3m95-129" value="" style="endArrow=classic;html=1;rounded=0;fontSize=20;entryX=0.5;entryY=0;entryDx=0;entryDy=0;" edge="1" parent="1" target="HOddscPRWS1l2fwZ3m95-128">
          <mxGeometry width="50" height="50" relative="1" as="geometry">
            <mxPoint x="440" y="1419.9999999999998" as="sourcePoint" />
            <mxPoint x="-390" y="370" as="targetPoint" />
          </mxGeometry>
        </mxCell>
        <mxCell id="HOddscPRWS1l2fwZ3m95-130" value="" style="endArrow=classic;html=1;rounded=0;fontSize=20;exitX=0.5;exitY=1;exitDx=0;exitDy=0;" edge="1" parent="1" source="HOddscPRWS1l2fwZ3m95-128">
          <mxGeometry width="50" height="50" relative="1" as="geometry">
            <mxPoint x="399.8800000000001" y="1500" as="sourcePoint" />
            <mxPoint x="280" y="1000" as="targetPoint" />
            <Array as="points">
              <mxPoint x="440" y="1630" />
              <mxPoint x="1480" y="1630" />
              <mxPoint x="1480" y="970" />
              <mxPoint x="1440" y="970" />
              <mxPoint x="320" y="970" />
              <mxPoint x="280" y="970" />
            </Array>
          </mxGeometry>
        </mxCell>
        <mxCell id="HOddscPRWS1l2fwZ3m95-131" value="q2" style="rounded=1;whiteSpace=wrap;html=1;fontSize=20;fillColor=none;" vertex="1" parent="1">
          <mxGeometry x="850" y="1439.7" width="140" height="60" as="geometry" />
        </mxCell>
        <mxCell id="HOddscPRWS1l2fwZ3m95-132" value="" style="endArrow=classic;html=1;rounded=0;fontSize=20;entryX=0.5;entryY=0;entryDx=0;entryDy=0;" edge="1" parent="1" target="HOddscPRWS1l2fwZ3m95-131">
          <mxGeometry width="50" height="50" relative="1" as="geometry">
            <mxPoint x="920" y="1419.9999999999998" as="sourcePoint" />
            <mxPoint x="90" y="370" as="targetPoint" />
          </mxGeometry>
        </mxCell>
        <mxCell id="HOddscPRWS1l2fwZ3m95-133" value="" style="endArrow=classic;html=1;rounded=0;fontSize=20;exitX=0.5;exitY=1;exitDx=0;exitDy=0;entryX=0.609;entryY=0;entryDx=0;entryDy=0;entryPerimeter=0;" edge="1" parent="1" source="HOddscPRWS1l2fwZ3m95-131" target="HOddscPRWS1l2fwZ3m95-35">
          <mxGeometry width="50" height="50" relative="1" as="geometry">
            <mxPoint x="879.8800000000001" y="1500" as="sourcePoint" />
            <mxPoint x="920" y="1618.98" as="targetPoint" />
            <Array as="points">
              <mxPoint x="920" y="1600" />
              <mxPoint x="1440" y="1600" />
              <mxPoint x="1440" y="980" />
              <mxPoint x="1410" y="980" />
              <mxPoint x="480" y="980" />
              <mxPoint x="440" y="980" />
            </Array>
          </mxGeometry>
        </mxCell>
        <mxCell id="HOddscPRWS1l2fwZ3m95-134" value="q3" style="rounded=1;whiteSpace=wrap;html=1;fontSize=20;fillColor=none;" vertex="1" parent="1">
          <mxGeometry x="1130" y="1439.7" width="140" height="60" as="geometry" />
        </mxCell>
        <mxCell id="HOddscPRWS1l2fwZ3m95-135" value="" style="endArrow=classic;html=1;rounded=0;fontSize=20;entryX=0.5;entryY=0;entryDx=0;entryDy=0;" edge="1" parent="1" target="HOddscPRWS1l2fwZ3m95-134">
          <mxGeometry width="50" height="50" relative="1" as="geometry">
            <mxPoint x="1200" y="1419.9999999999998" as="sourcePoint" />
            <mxPoint x="370" y="370" as="targetPoint" />
          </mxGeometry>
        </mxCell>
        <mxCell id="HOddscPRWS1l2fwZ3m95-136" value="" style="endArrow=classic;html=1;rounded=0;fontSize=20;exitX=0.5;exitY=1;exitDx=0;exitDy=0;entryX=0.75;entryY=0;entryDx=0;entryDy=0;" edge="1" parent="1" source="HOddscPRWS1l2fwZ3m95-134" target="HOddscPRWS1l2fwZ3m95-35">
          <mxGeometry width="50" height="50" relative="1" as="geometry">
            <mxPoint x="1159.88" y="1500" as="sourcePoint" />
            <mxPoint x="540" y="990" as="targetPoint" />
            <Array as="points">
              <mxPoint x="1200" y="1560" />
              <mxPoint x="1400" y="1560" />
              <mxPoint x="1400" y="990" />
              <mxPoint x="550" y="990" />
            </Array>
          </mxGeometry>
        </mxCell>
        <mxCell id="HOddscPRWS1l2fwZ3m95-138" value="" style="endArrow=classic;html=1;rounded=0;fontSize=20;entryX=0.25;entryY=0;entryDx=0;entryDy=0;" edge="1" parent="1" target="HOddscPRWS1l2fwZ3m95-63">
          <mxGeometry width="50" height="50" relative="1" as="geometry">
            <mxPoint x="877" y="990" as="sourcePoint" />
            <mxPoint x="920" y="980" as="targetPoint" />
          </mxGeometry>
        </mxCell>
        <mxCell id="HOddscPRWS1l2fwZ3m95-139" value="" style="endArrow=classic;html=1;rounded=0;fontSize=20;" edge="1" parent="1">
          <mxGeometry width="50" height="50" relative="1" as="geometry">
            <mxPoint x="960" y="980" as="sourcePoint" />
            <mxPoint x="960" y="1000" as="targetPoint" />
          </mxGeometry>
        </mxCell>
        <mxCell id="HOddscPRWS1l2fwZ3m95-140" value="" style="endArrow=classic;html=1;rounded=0;fontSize=20;" edge="1" parent="1">
          <mxGeometry width="50" height="50" relative="1" as="geometry">
            <mxPoint x="1080" y="970" as="sourcePoint" />
            <mxPoint x="1080" y="1000" as="targetPoint" />
          </mxGeometry>
        </mxCell>
        <mxCell id="HOddscPRWS1l2fwZ3m95-141" value="" style="endArrow=classic;html=1;rounded=0;fontSize=20;entryX=0.75;entryY=0;entryDx=0;entryDy=0;" edge="1" parent="1" target="HOddscPRWS1l2fwZ3m95-63">
          <mxGeometry width="50" height="50" relative="1" as="geometry">
            <mxPoint x="1173" y="960" as="sourcePoint" />
            <mxPoint x="1200" y="980" as="targetPoint" />
          </mxGeometry>
        </mxCell>
        <mxCell id="HOddscPRWS1l2fwZ3m95-142" value="`TIME(00)" style="rounded=1;whiteSpace=wrap;html=1;fontSize=20;fillColor=none;" vertex="1" parent="1">
          <mxGeometry x="110" y="1270" width="470" height="30" as="geometry" />
        </mxCell>
        <mxCell id="HOddscPRWS1l2fwZ3m95-143" value="`Alarm(01)" style="rounded=1;whiteSpace=wrap;html=1;fontSize=20;fillColor=none;" vertex="1" parent="1">
          <mxGeometry x="770" y="1270" width="470" height="30" as="geometry" />
        </mxCell>
        <mxCell id="HOddscPRWS1l2fwZ3m95-144" value="multiplexer" style="rounded=1;whiteSpace=wrap;html=1;fontSize=20;fillColor=none;" vertex="1" parent="1">
          <mxGeometry x="22" y="1770" width="1958" height="60" as="geometry" />
        </mxCell>
        <mxCell id="HOddscPRWS1l2fwZ3m95-145" value="" style="endArrow=classic;html=1;rounded=0;fontSize=20;exitX=0.5;exitY=1;exitDx=0;exitDy=0;entryX=0.07;entryY=0;entryDx=0;entryDy=0;entryPerimeter=0;" edge="1" parent="1" source="HOddscPRWS1l2fwZ3m95-125" target="HOddscPRWS1l2fwZ3m95-144">
          <mxGeometry width="50" height="50" relative="1" as="geometry">
            <mxPoint x="590" y="1790" as="sourcePoint" />
            <mxPoint x="160" y="1760" as="targetPoint" />
          </mxGeometry>
        </mxCell>
        <mxCell id="HOddscPRWS1l2fwZ3m95-146" value="" style="endArrow=classic;html=1;rounded=0;fontSize=20;exitX=0.5;exitY=1;exitDx=0;exitDy=0;" edge="1" parent="1" source="HOddscPRWS1l2fwZ3m95-128">
          <mxGeometry width="50" height="50" relative="1" as="geometry">
            <mxPoint x="520" y="1550" as="sourcePoint" />
            <mxPoint x="440" y="1770" as="targetPoint" />
          </mxGeometry>
        </mxCell>
        <mxCell id="HOddscPRWS1l2fwZ3m95-147" value="" style="endArrow=classic;html=1;rounded=0;fontSize=20;entryX=0.106;entryY=0;entryDx=0;entryDy=0;entryPerimeter=0;exitX=0.5;exitY=1;exitDx=0;exitDy=0;" edge="1" parent="1" source="HOddscPRWS1l2fwZ3m95-131">
          <mxGeometry width="50" height="50" relative="1" as="geometry">
            <mxPoint x="870" y="1520" as="sourcePoint" />
            <mxPoint x="919.41" y="1770" as="targetPoint" />
          </mxGeometry>
        </mxCell>
        <mxCell id="HOddscPRWS1l2fwZ3m95-148" value="" style="endArrow=classic;html=1;rounded=0;fontSize=20;entryX=0.106;entryY=0;entryDx=0;entryDy=0;entryPerimeter=0;exitX=0.5;exitY=1;exitDx=0;exitDy=0;" edge="1" parent="1" source="HOddscPRWS1l2fwZ3m95-134">
          <mxGeometry width="50" height="50" relative="1" as="geometry">
            <mxPoint x="1130" y="1530" as="sourcePoint" />
            <mxPoint x="1199.4099999999999" y="1770" as="targetPoint" />
          </mxGeometry>
        </mxCell>
        <mxCell id="HOddscPRWS1l2fwZ3m95-193" value="sec0" style="rounded=1;whiteSpace=wrap;html=1;fontSize=20;fillColor=none;" vertex="1" parent="1">
          <mxGeometry x="40" y="1850.3" width="60" height="60" as="geometry" />
        </mxCell>
        <mxCell id="HOddscPRWS1l2fwZ3m95-194" value="sec1" style="rounded=1;whiteSpace=wrap;html=1;fontSize=20;fillColor=none;" vertex="1" parent="1">
          <mxGeometry x="110" y="1850.3" width="60" height="60" as="geometry" />
        </mxCell>
        <mxCell id="HOddscPRWS1l2fwZ3m95-195" value="min0" style="rounded=1;whiteSpace=wrap;html=1;fontSize=20;fillColor=none;" vertex="1" parent="1">
          <mxGeometry x="180" y="1850.3" width="60" height="60" as="geometry" />
        </mxCell>
        <mxCell id="HOddscPRWS1l2fwZ3m95-196" value="min1" style="rounded=1;whiteSpace=wrap;html=1;fontSize=20;fillColor=none;" vertex="1" parent="1">
          <mxGeometry x="250" y="1850.3" width="60" height="60" as="geometry" />
        </mxCell>
        <mxCell id="HOddscPRWS1l2fwZ3m95-197" value="hou0" style="rounded=1;whiteSpace=wrap;html=1;fontSize=20;fillColor=none;" vertex="1" parent="1">
          <mxGeometry x="320" y="1850.3" width="60" height="60" as="geometry" />
        </mxCell>
        <mxCell id="HOddscPRWS1l2fwZ3m95-198" value="hou1" style="rounded=1;whiteSpace=wrap;html=1;fontSize=20;fillColor=none;" vertex="1" parent="1">
          <mxGeometry x="390" y="1850.3" width="60" height="60" as="geometry" />
        </mxCell>
        <mxCell id="HOddscPRWS1l2fwZ3m95-199" value="yea0" style="rounded=1;whiteSpace=wrap;html=1;fontSize=20;fillColor=none;" vertex="1" parent="1">
          <mxGeometry x="457.5" y="1850.3" width="62.5" height="60" as="geometry" />
        </mxCell>
        <mxCell id="HOddscPRWS1l2fwZ3m95-200" value="yea1" style="rounded=1;whiteSpace=wrap;html=1;fontSize=20;fillColor=none;" vertex="1" parent="1">
          <mxGeometry x="527.5" y="1850.3" width="62.5" height="60" as="geometry" />
        </mxCell>
        <mxCell id="HOddscPRWS1l2fwZ3m95-201" value="yea2" style="rounded=1;whiteSpace=wrap;html=1;fontSize=20;fillColor=none;" vertex="1" parent="1">
          <mxGeometry x="597.5" y="1850.3" width="62.5" height="60" as="geometry" />
        </mxCell>
        <mxCell id="HOddscPRWS1l2fwZ3m95-202" value="yea3" style="rounded=1;whiteSpace=wrap;html=1;fontSize=20;fillColor=none;" vertex="1" parent="1">
          <mxGeometry x="670" y="1850.3" width="60" height="60" as="geometry" />
        </mxCell>
        <mxCell id="HOddscPRWS1l2fwZ3m95-203" value="" style="endArrow=classic;html=1;rounded=0;fontSize=20;entryX=0.5;entryY=0;entryDx=0;entryDy=0;" edge="1" parent="1" target="HOddscPRWS1l2fwZ3m95-193">
          <mxGeometry width="50" height="50" relative="1" as="geometry">
            <mxPoint x="70" y="1830.3" as="sourcePoint" />
            <mxPoint x="270" y="1680.3" as="targetPoint" />
          </mxGeometry>
        </mxCell>
        <mxCell id="HOddscPRWS1l2fwZ3m95-204" value="" style="endArrow=classic;html=1;rounded=0;fontSize=20;" edge="1" parent="1">
          <mxGeometry width="50" height="50" relative="1" as="geometry">
            <mxPoint x="140" y="1830.3" as="sourcePoint" />
            <mxPoint x="140" y="1850.3" as="targetPoint" />
          </mxGeometry>
        </mxCell>
        <mxCell id="HOddscPRWS1l2fwZ3m95-205" value="" style="endArrow=classic;html=1;rounded=0;fontSize=20;entryX=0.5;entryY=0;entryDx=0;entryDy=0;" edge="1" parent="1" target="HOddscPRWS1l2fwZ3m95-195">
          <mxGeometry width="50" height="50" relative="1" as="geometry">
            <mxPoint x="210.00000000000023" y="1830.3" as="sourcePoint" />
            <mxPoint x="150" y="1860.3" as="targetPoint" />
          </mxGeometry>
        </mxCell>
        <mxCell id="HOddscPRWS1l2fwZ3m95-206" value="" style="endArrow=classic;html=1;rounded=0;fontSize=20;entryX=0.5;entryY=0;entryDx=0;entryDy=0;" edge="1" parent="1" target="HOddscPRWS1l2fwZ3m95-196">
          <mxGeometry width="50" height="50" relative="1" as="geometry">
            <mxPoint x="279.9999999999998" y="1830.3" as="sourcePoint" />
            <mxPoint x="220" y="1860.3" as="targetPoint" />
          </mxGeometry>
        </mxCell>
        <mxCell id="HOddscPRWS1l2fwZ3m95-207" value="" style="endArrow=classic;html=1;rounded=0;fontSize=20;entryX=0.5;entryY=0;entryDx=0;entryDy=0;" edge="1" parent="1" target="HOddscPRWS1l2fwZ3m95-197">
          <mxGeometry width="50" height="50" relative="1" as="geometry">
            <mxPoint x="349.9999999999998" y="1830.3" as="sourcePoint" />
            <mxPoint x="230" y="1870.3" as="targetPoint" />
          </mxGeometry>
        </mxCell>
        <mxCell id="HOddscPRWS1l2fwZ3m95-208" value="" style="endArrow=classic;html=1;rounded=0;fontSize=20;entryX=0.5;entryY=0;entryDx=0;entryDy=0;exitX=0.551;exitY=0.995;exitDx=0;exitDy=0;exitPerimeter=0;" edge="1" parent="1" target="HOddscPRWS1l2fwZ3m95-198">
          <mxGeometry width="50" height="50" relative="1" as="geometry">
            <mxPoint x="420.1899999999998" y="1830" as="sourcePoint" />
            <mxPoint x="360" y="1860.3" as="targetPoint" />
          </mxGeometry>
        </mxCell>
        <mxCell id="HOddscPRWS1l2fwZ3m95-209" value="" style="endArrow=classic;html=1;rounded=0;fontSize=20;entryX=0.5;entryY=0;entryDx=0;entryDy=0;exitX=0.65;exitY=0.995;exitDx=0;exitDy=0;exitPerimeter=0;" edge="1" parent="1" target="HOddscPRWS1l2fwZ3m95-199">
          <mxGeometry width="50" height="50" relative="1" as="geometry">
            <mxPoint x="488.5" y="1830" as="sourcePoint" />
            <mxPoint x="430" y="1860.3" as="targetPoint" />
          </mxGeometry>
        </mxCell>
        <mxCell id="HOddscPRWS1l2fwZ3m95-210" value="" style="endArrow=classic;html=1;rounded=0;fontSize=20;entryX=0.5;entryY=0;entryDx=0;entryDy=0;" edge="1" parent="1" target="HOddscPRWS1l2fwZ3m95-200">
          <mxGeometry width="50" height="50" relative="1" as="geometry">
            <mxPoint x="559.0000000000002" y="1830.3" as="sourcePoint" />
            <mxPoint x="498.75" y="1860.3" as="targetPoint" />
          </mxGeometry>
        </mxCell>
        <mxCell id="HOddscPRWS1l2fwZ3m95-211" value="" style="endArrow=classic;html=1;rounded=0;fontSize=20;entryX=0.5;entryY=0;entryDx=0;entryDy=0;exitX=0.853;exitY=0.995;exitDx=0;exitDy=0;exitPerimeter=0;" edge="1" parent="1" target="HOddscPRWS1l2fwZ3m95-201">
          <mxGeometry width="50" height="50" relative="1" as="geometry">
            <mxPoint x="628.5699999999999" y="1830" as="sourcePoint" />
            <mxPoint x="568.75" y="1860.3" as="targetPoint" />
          </mxGeometry>
        </mxCell>
        <mxCell id="HOddscPRWS1l2fwZ3m95-212" value="" style="endArrow=classic;html=1;rounded=0;fontSize=20;entryX=0.5;entryY=0;entryDx=0;entryDy=0;" edge="1" parent="1" target="HOddscPRWS1l2fwZ3m95-202">
          <mxGeometry width="50" height="50" relative="1" as="geometry">
            <mxPoint x="699.9999999999998" y="1830.3" as="sourcePoint" />
            <mxPoint x="578.75" y="1870.3" as="targetPoint" />
          </mxGeometry>
        </mxCell>
        <mxCell id="HOddscPRWS1l2fwZ3m95-213" value="" style="endArrow=classic;html=1;rounded=0;fontSize=20;entryX=0.023;entryY=0;entryDx=0;entryDy=0;entryPerimeter=0;" edge="1" parent="1" target="HOddscPRWS1l2fwZ3m95-262">
          <mxGeometry width="50" height="50" relative="1" as="geometry">
            <mxPoint x="69.88000000000011" y="1910.5999999999997" as="sourcePoint" />
            <mxPoint x="69.88000000000011" y="1930.5999999999997" as="targetPoint" />
          </mxGeometry>
        </mxCell>
        <mxCell id="HOddscPRWS1l2fwZ3m95-214" value="" style="endArrow=classic;html=1;rounded=0;fontSize=20;entryX=0.05;entryY=0;entryDx=0;entryDy=0;entryPerimeter=0;" edge="1" parent="1" target="HOddscPRWS1l2fwZ3m95-262">
          <mxGeometry width="50" height="50" relative="1" as="geometry">
            <mxPoint x="139.8800000000001" y="1910.5999999999997" as="sourcePoint" />
            <mxPoint x="139.8800000000001" y="1930.5999999999997" as="targetPoint" />
          </mxGeometry>
        </mxCell>
        <mxCell id="HOddscPRWS1l2fwZ3m95-215" value="" style="endArrow=classic;html=1;rounded=0;fontSize=20;entryX=0.077;entryY=0;entryDx=0;entryDy=0;entryPerimeter=0;" edge="1" parent="1" target="HOddscPRWS1l2fwZ3m95-262">
          <mxGeometry width="50" height="50" relative="1" as="geometry">
            <mxPoint x="209.8800000000001" y="1910.5999999999997" as="sourcePoint" />
            <mxPoint x="209.8800000000001" y="1930.5999999999997" as="targetPoint" />
          </mxGeometry>
        </mxCell>
        <mxCell id="HOddscPRWS1l2fwZ3m95-216" value="" style="endArrow=classic;html=1;rounded=0;fontSize=20;entryX=0.104;entryY=0;entryDx=0;entryDy=0;entryPerimeter=0;" edge="1" parent="1" target="HOddscPRWS1l2fwZ3m95-262">
          <mxGeometry width="50" height="50" relative="1" as="geometry">
            <mxPoint x="279.8800000000001" y="1910.5999999999997" as="sourcePoint" />
            <mxPoint x="279.8800000000001" y="1930.5999999999997" as="targetPoint" />
          </mxGeometry>
        </mxCell>
        <mxCell id="HOddscPRWS1l2fwZ3m95-217" value="" style="endArrow=classic;html=1;rounded=0;fontSize=20;entryX=0.131;entryY=0;entryDx=0;entryDy=0;entryPerimeter=0;" edge="1" parent="1" target="HOddscPRWS1l2fwZ3m95-262">
          <mxGeometry width="50" height="50" relative="1" as="geometry">
            <mxPoint x="349.8800000000001" y="1910.5999999999997" as="sourcePoint" />
            <mxPoint x="349.8800000000001" y="1930.5999999999997" as="targetPoint" />
          </mxGeometry>
        </mxCell>
        <mxCell id="HOddscPRWS1l2fwZ3m95-218" value="" style="endArrow=classic;html=1;rounded=0;fontSize=20;entryX=0.158;entryY=0.024;entryDx=0;entryDy=0;exitX=0.551;exitY=0.995;exitDx=0;exitDy=0;exitPerimeter=0;entryPerimeter=0;" edge="1" parent="1" target="HOddscPRWS1l2fwZ3m95-262">
          <mxGeometry width="50" height="50" relative="1" as="geometry">
            <mxPoint x="420.07000000000016" y="1910.3" as="sourcePoint" />
            <mxPoint x="419.8800000000001" y="1930.5999999999997" as="targetPoint" />
          </mxGeometry>
        </mxCell>
        <mxCell id="HOddscPRWS1l2fwZ3m95-219" value="" style="endArrow=classic;html=1;rounded=0;fontSize=20;entryX=0.184;entryY=-0.002;entryDx=0;entryDy=0;exitX=0.65;exitY=0.995;exitDx=0;exitDy=0;exitPerimeter=0;entryPerimeter=0;" edge="1" parent="1" target="HOddscPRWS1l2fwZ3m95-262">
          <mxGeometry width="50" height="50" relative="1" as="geometry">
            <mxPoint x="488.3800000000001" y="1910.3" as="sourcePoint" />
            <mxPoint x="488.6300000000001" y="1930.5999999999997" as="targetPoint" />
          </mxGeometry>
        </mxCell>
        <mxCell id="HOddscPRWS1l2fwZ3m95-220" value="" style="endArrow=classic;html=1;rounded=0;fontSize=20;entryX=0.211;entryY=-0.002;entryDx=0;entryDy=0;entryPerimeter=0;" edge="1" parent="1" target="HOddscPRWS1l2fwZ3m95-262">
          <mxGeometry width="50" height="50" relative="1" as="geometry">
            <mxPoint x="558.8800000000001" y="1910.5999999999997" as="sourcePoint" />
            <mxPoint x="558.6300000000001" y="1930.5999999999997" as="targetPoint" />
          </mxGeometry>
        </mxCell>
        <mxCell id="HOddscPRWS1l2fwZ3m95-221" value="" style="endArrow=classic;html=1;rounded=0;fontSize=20;exitX=0.853;exitY=0.995;exitDx=0;exitDy=0;exitPerimeter=0;entryX=0.238;entryY=0.024;entryDx=0;entryDy=0;entryPerimeter=0;" edge="1" parent="1" target="HOddscPRWS1l2fwZ3m95-262">
          <mxGeometry width="50" height="50" relative="1" as="geometry">
            <mxPoint x="628.45" y="1910.3" as="sourcePoint" />
            <mxPoint x="630" y="2110" as="targetPoint" />
          </mxGeometry>
        </mxCell>
        <mxCell id="HOddscPRWS1l2fwZ3m95-222" value="" style="endArrow=classic;html=1;rounded=0;fontSize=20;entryX=0.265;entryY=0;entryDx=0;entryDy=0;entryPerimeter=0;" edge="1" parent="1" target="HOddscPRWS1l2fwZ3m95-262">
          <mxGeometry width="50" height="50" relative="1" as="geometry">
            <mxPoint x="699.8800000000001" y="1910.5999999999997" as="sourcePoint" />
            <mxPoint x="699.8800000000001" y="1930.5999999999997" as="targetPoint" />
          </mxGeometry>
        </mxCell>
        <mxCell id="HOddscPRWS1l2fwZ3m95-223" value="alarm_min0" style="rounded=1;whiteSpace=wrap;html=1;fontSize=20;fillColor=none;" vertex="1" parent="1">
          <mxGeometry x="740" y="1850.42" width="140" height="60" as="geometry" />
        </mxCell>
        <mxCell id="HOddscPRWS1l2fwZ3m95-224" value="" style="endArrow=classic;html=1;rounded=0;fontSize=20;entryX=0.5;entryY=0;entryDx=0;entryDy=0;" edge="1" parent="1" target="HOddscPRWS1l2fwZ3m95-223">
          <mxGeometry width="50" height="50" relative="1" as="geometry">
            <mxPoint x="810" y="1830.72" as="sourcePoint" />
            <mxPoint x="-20" y="780.72" as="targetPoint" />
          </mxGeometry>
        </mxCell>
        <mxCell id="HOddscPRWS1l2fwZ3m95-225" value="alarm_min1" style="rounded=1;whiteSpace=wrap;html=1;fontSize=20;fillColor=none;" vertex="1" parent="1">
          <mxGeometry x="890" y="1850.42" width="140" height="60" as="geometry" />
        </mxCell>
        <mxCell id="HOddscPRWS1l2fwZ3m95-226" value="" style="endArrow=classic;html=1;rounded=0;fontSize=20;entryX=0.5;entryY=0;entryDx=0;entryDy=0;exitX=0.13;exitY=0.988;exitDx=0;exitDy=0;exitPerimeter=0;" edge="1" parent="1" target="HOddscPRWS1l2fwZ3m95-225">
          <mxGeometry width="50" height="50" relative="1" as="geometry">
            <mxPoint x="960.1999999999998" y="1830" as="sourcePoint" />
            <mxPoint x="130" y="780.72" as="targetPoint" />
          </mxGeometry>
        </mxCell>
        <mxCell id="HOddscPRWS1l2fwZ3m95-227" value="" style="endArrow=classic;html=1;rounded=0;fontSize=20;exitX=0.5;exitY=1;exitDx=0;exitDy=0;entryX=0.365;entryY=-0.014;entryDx=0;entryDy=0;entryPerimeter=0;" edge="1" parent="1" source="HOddscPRWS1l2fwZ3m95-225" target="HOddscPRWS1l2fwZ3m95-262">
          <mxGeometry width="50" height="50" relative="1" as="geometry">
            <mxPoint x="189.8800000000001" y="831.02" as="sourcePoint" />
            <mxPoint x="960" y="1930" as="targetPoint" />
          </mxGeometry>
        </mxCell>
        <mxCell id="HOddscPRWS1l2fwZ3m95-228" value="alarm_hou0" style="rounded=1;whiteSpace=wrap;html=1;fontSize=20;fillColor=none;" vertex="1" parent="1">
          <mxGeometry x="1040" y="1850.42" width="140" height="60" as="geometry" />
        </mxCell>
        <mxCell id="HOddscPRWS1l2fwZ3m95-229" value="" style="endArrow=classic;html=1;rounded=0;fontSize=20;entryX=0.5;entryY=0;entryDx=0;entryDy=0;exitX=0.13;exitY=0.988;exitDx=0;exitDy=0;exitPerimeter=0;" edge="1" parent="1" target="HOddscPRWS1l2fwZ3m95-228">
          <mxGeometry width="50" height="50" relative="1" as="geometry">
            <mxPoint x="1110.1999999999998" y="1830" as="sourcePoint" />
            <mxPoint x="280" y="780.72" as="targetPoint" />
          </mxGeometry>
        </mxCell>
        <mxCell id="HOddscPRWS1l2fwZ3m95-230" value="" style="endArrow=classic;html=1;rounded=0;fontSize=20;exitX=0.5;exitY=1;exitDx=0;exitDy=0;entryX=0.423;entryY=0.024;entryDx=0;entryDy=0;entryPerimeter=0;" edge="1" parent="1" source="HOddscPRWS1l2fwZ3m95-228" target="HOddscPRWS1l2fwZ3m95-262">
          <mxGeometry width="50" height="50" relative="1" as="geometry">
            <mxPoint x="339.8800000000001" y="831.02" as="sourcePoint" />
            <mxPoint x="1110" y="1930" as="targetPoint" />
          </mxGeometry>
        </mxCell>
        <mxCell id="HOddscPRWS1l2fwZ3m95-231" value="alarm_hou1" style="rounded=1;whiteSpace=wrap;html=1;fontSize=20;fillColor=none;" vertex="1" parent="1">
          <mxGeometry x="1190" y="1851.14" width="140" height="60" as="geometry" />
        </mxCell>
        <mxCell id="HOddscPRWS1l2fwZ3m95-232" value="" style="endArrow=classic;html=1;rounded=0;fontSize=20;entryX=0.5;entryY=0;entryDx=0;entryDy=0;exitX=0.13;exitY=0.988;exitDx=0;exitDy=0;exitPerimeter=0;" edge="1" parent="1" target="HOddscPRWS1l2fwZ3m95-231">
          <mxGeometry width="50" height="50" relative="1" as="geometry">
            <mxPoint x="1260.1999999999998" y="1830.72" as="sourcePoint" />
            <mxPoint x="430" y="781.44" as="targetPoint" />
          </mxGeometry>
        </mxCell>
        <mxCell id="HOddscPRWS1l2fwZ3m95-233" value="" style="endArrow=classic;html=1;rounded=0;fontSize=20;exitX=0.5;exitY=1;exitDx=0;exitDy=0;entryX=0.481;entryY=0.024;entryDx=0;entryDy=0;entryPerimeter=0;" edge="1" parent="1" source="HOddscPRWS1l2fwZ3m95-231" target="HOddscPRWS1l2fwZ3m95-262">
          <mxGeometry width="50" height="50" relative="1" as="geometry">
            <mxPoint x="489.8800000000001" y="831.74" as="sourcePoint" />
            <mxPoint x="1260" y="1930" as="targetPoint" />
          </mxGeometry>
        </mxCell>
        <mxCell id="HOddscPRWS1l2fwZ3m95-234" value="" style="endArrow=classic;html=1;rounded=0;fontSize=20;exitX=0.5;exitY=1;exitDx=0;exitDy=0;entryX=0.307;entryY=0.006;entryDx=0;entryDy=0;entryPerimeter=0;" edge="1" parent="1" source="HOddscPRWS1l2fwZ3m95-223" target="HOddscPRWS1l2fwZ3m95-262">
          <mxGeometry width="50" height="50" relative="1" as="geometry">
            <mxPoint x="769.8800000000001" y="1910.72" as="sourcePoint" />
            <mxPoint x="810" y="1930" as="targetPoint" />
          </mxGeometry>
        </mxCell>
        <mxCell id="HOddscPRWS1l2fwZ3m95-237" value="stopwatch_sec0" style="rounded=1;whiteSpace=wrap;html=1;fontSize=20;fillColor=none;" vertex="1" parent="1">
          <mxGeometry x="1340" y="1851.56" width="160" height="60" as="geometry" />
        </mxCell>
        <mxCell id="HOddscPRWS1l2fwZ3m95-238" value="" style="endArrow=classic;html=1;rounded=0;fontSize=20;entryX=0.5;entryY=0;entryDx=0;entryDy=0;" edge="1" parent="1" target="HOddscPRWS1l2fwZ3m95-237">
          <mxGeometry width="50" height="50" relative="1" as="geometry">
            <mxPoint x="1420" y="1832" as="sourcePoint" />
            <mxPoint x="580" y="781.86" as="targetPoint" />
          </mxGeometry>
        </mxCell>
        <mxCell id="HOddscPRWS1l2fwZ3m95-239" value="stopwatch_sec1" style="rounded=1;whiteSpace=wrap;html=1;fontSize=20;fillColor=none;" vertex="1" parent="1">
          <mxGeometry x="1510" y="1850.3" width="150" height="60" as="geometry" />
        </mxCell>
        <mxCell id="HOddscPRWS1l2fwZ3m95-240" value="" style="endArrow=classic;html=1;rounded=0;fontSize=20;entryX=0.5;entryY=0;entryDx=0;entryDy=0;" edge="1" parent="1" target="HOddscPRWS1l2fwZ3m95-239">
          <mxGeometry width="50" height="50" relative="1" as="geometry">
            <mxPoint x="1585" y="1832" as="sourcePoint" />
            <mxPoint x="760" y="782.28" as="targetPoint" />
          </mxGeometry>
        </mxCell>
        <mxCell id="HOddscPRWS1l2fwZ3m95-241" value="" style="endArrow=classic;html=1;rounded=0;fontSize=20;exitX=0.5;exitY=1;exitDx=0;exitDy=0;" edge="1" parent="1" source="HOddscPRWS1l2fwZ3m95-239">
          <mxGeometry width="50" height="50" relative="1" as="geometry">
            <mxPoint x="819.8800000000001" y="832.5799999999999" as="sourcePoint" />
            <mxPoint x="1585" y="1932" as="targetPoint" />
          </mxGeometry>
        </mxCell>
        <mxCell id="HOddscPRWS1l2fwZ3m95-242" value="stopwatc_min0" style="rounded=1;whiteSpace=wrap;html=1;fontSize=20;fillColor=none;" vertex="1" parent="1">
          <mxGeometry x="1670" y="1851.98" width="150" height="60" as="geometry" />
        </mxCell>
        <mxCell id="HOddscPRWS1l2fwZ3m95-243" value="" style="endArrow=classic;html=1;rounded=0;fontSize=20;entryX=0.5;entryY=0;entryDx=0;entryDy=0;" edge="1" parent="1" target="HOddscPRWS1l2fwZ3m95-242">
          <mxGeometry width="50" height="50" relative="1" as="geometry">
            <mxPoint x="1745" y="1832" as="sourcePoint" />
            <mxPoint x="910" y="782.28" as="targetPoint" />
          </mxGeometry>
        </mxCell>
        <mxCell id="HOddscPRWS1l2fwZ3m95-244" value="" style="endArrow=classic;html=1;rounded=0;fontSize=20;exitX=0.5;exitY=1;exitDx=0;exitDy=0;" edge="1" parent="1" source="HOddscPRWS1l2fwZ3m95-242">
          <mxGeometry width="50" height="50" relative="1" as="geometry">
            <mxPoint x="969.8800000000001" y="832.5799999999999" as="sourcePoint" />
            <mxPoint x="1745" y="1932" as="targetPoint" />
          </mxGeometry>
        </mxCell>
        <mxCell id="HOddscPRWS1l2fwZ3m95-245" value="stopwatch_min1" style="rounded=1;whiteSpace=wrap;html=1;fontSize=20;fillColor=none;" vertex="1" parent="1">
          <mxGeometry x="1830" y="1852.7" width="150" height="60" as="geometry" />
        </mxCell>
        <mxCell id="HOddscPRWS1l2fwZ3m95-246" value="" style="endArrow=classic;html=1;rounded=0;fontSize=20;entryX=0.5;entryY=0;entryDx=0;entryDy=0;" edge="1" parent="1" target="HOddscPRWS1l2fwZ3m95-245">
          <mxGeometry width="50" height="50" relative="1" as="geometry">
            <mxPoint x="1905" y="1832" as="sourcePoint" />
            <mxPoint x="1060" y="783" as="targetPoint" />
          </mxGeometry>
        </mxCell>
        <mxCell id="HOddscPRWS1l2fwZ3m95-247" value="" style="endArrow=classic;html=1;rounded=0;fontSize=20;exitX=0.5;exitY=1;exitDx=0;exitDy=0;" edge="1" parent="1" source="HOddscPRWS1l2fwZ3m95-245">
          <mxGeometry width="50" height="50" relative="1" as="geometry">
            <mxPoint x="1119.88" y="833.3" as="sourcePoint" />
            <mxPoint x="1905" y="1932" as="targetPoint" />
          </mxGeometry>
        </mxCell>
        <mxCell id="HOddscPRWS1l2fwZ3m95-248" value="" style="endArrow=classic;html=1;rounded=0;fontSize=20;exitX=0.5;exitY=1;exitDx=0;exitDy=0;" edge="1" parent="1" source="HOddscPRWS1l2fwZ3m95-237">
          <mxGeometry width="50" height="50" relative="1" as="geometry">
            <mxPoint x="1369.88" y="1911.8600000000001" as="sourcePoint" />
            <mxPoint x="1420" y="1931" as="targetPoint" />
          </mxGeometry>
        </mxCell>
        <mxCell id="HOddscPRWS1l2fwZ3m95-249" value="stopwatch_sec1&lt;br&gt;_latch" style="rounded=1;whiteSpace=wrap;html=1;fontSize=20;fillColor=none;" vertex="1" parent="1">
          <mxGeometry x="1510" y="1930" width="150" height="60" as="geometry" />
        </mxCell>
        <mxCell id="HOddscPRWS1l2fwZ3m95-250" value="stopwatch_sec0&lt;br&gt;_latch" style="rounded=1;whiteSpace=wrap;html=1;fontSize=20;fillColor=none;" vertex="1" parent="1">
          <mxGeometry x="1345" y="1930" width="150" height="60" as="geometry" />
        </mxCell>
        <mxCell id="HOddscPRWS1l2fwZ3m95-251" value="stopwatch_min0&lt;br&gt;_latch" style="rounded=1;whiteSpace=wrap;html=1;fontSize=20;fillColor=none;" vertex="1" parent="1">
          <mxGeometry x="1670" y="1930" width="150" height="60" as="geometry" />
        </mxCell>
        <mxCell id="HOddscPRWS1l2fwZ3m95-252" value="stopwatch_min1&lt;br&gt;_latch" style="rounded=1;whiteSpace=wrap;html=1;fontSize=20;fillColor=none;" vertex="1" parent="1">
          <mxGeometry x="1830" y="1930" width="150" height="60" as="geometry" />
        </mxCell>
        <mxCell id="HOddscPRWS1l2fwZ3m95-253" value="" style="endArrow=classic;html=1;rounded=0;fontSize=20;exitX=0.5;exitY=1;exitDx=0;exitDy=0;" edge="1" parent="1">
          <mxGeometry width="50" height="50" relative="1" as="geometry">
            <mxPoint x="1585" y="1990.0000000000002" as="sourcePoint" />
            <mxPoint x="1585" y="2011.7" as="targetPoint" />
          </mxGeometry>
        </mxCell>
        <mxCell id="HOddscPRWS1l2fwZ3m95-254" value="" style="endArrow=classic;html=1;rounded=0;fontSize=20;exitX=0.5;exitY=1;exitDx=0;exitDy=0;" edge="1" parent="1">
          <mxGeometry width="50" height="50" relative="1" as="geometry">
            <mxPoint x="1745" y="1991.68" as="sourcePoint" />
            <mxPoint x="1745" y="2011.7" as="targetPoint" />
          </mxGeometry>
        </mxCell>
        <mxCell id="HOddscPRWS1l2fwZ3m95-255" value="" style="endArrow=classic;html=1;rounded=0;fontSize=20;exitX=0.5;exitY=1;exitDx=0;exitDy=0;" edge="1" parent="1">
          <mxGeometry width="50" height="50" relative="1" as="geometry">
            <mxPoint x="1905" y="1992.3999999999999" as="sourcePoint" />
            <mxPoint x="1905" y="2011.7" as="targetPoint" />
          </mxGeometry>
        </mxCell>
        <mxCell id="HOddscPRWS1l2fwZ3m95-256" value="" style="endArrow=classic;html=1;rounded=0;fontSize=20;exitX=0.5;exitY=1;exitDx=0;exitDy=0;" edge="1" parent="1">
          <mxGeometry width="50" height="50" relative="1" as="geometry">
            <mxPoint x="1420" y="1991.26" as="sourcePoint" />
            <mxPoint x="1420" y="2010.7" as="targetPoint" />
          </mxGeometry>
        </mxCell>
        <mxCell id="HOddscPRWS1l2fwZ3m95-261" value="multiplexer" style="rounded=1;whiteSpace=wrap;html=1;fontSize=20;fillColor=none;" vertex="1" parent="1">
          <mxGeometry x="1345" y="2010" width="1265" height="60" as="geometry" />
        </mxCell>
        <mxCell id="HOddscPRWS1l2fwZ3m95-271" style="edgeStyle=orthogonalEdgeStyle;rounded=0;orthogonalLoop=1;jettySize=auto;html=1;exitX=0.25;exitY=1;exitDx=0;exitDy=0;fontSize=20;" edge="1" parent="1" source="HOddscPRWS1l2fwZ3m95-262">
          <mxGeometry relative="1" as="geometry">
            <mxPoint x="659.8461538461538" y="2200" as="targetPoint" />
          </mxGeometry>
        </mxCell>
        <mxCell id="HOddscPRWS1l2fwZ3m95-273" style="edgeStyle=orthogonalEdgeStyle;rounded=0;orthogonalLoop=1;jettySize=auto;html=1;exitX=0.75;exitY=1;exitDx=0;exitDy=0;fontSize=20;" edge="1" parent="1" source="HOddscPRWS1l2fwZ3m95-262">
          <mxGeometry relative="1" as="geometry">
            <mxPoint x="1959.8461538461538" y="2200" as="targetPoint" />
          </mxGeometry>
        </mxCell>
        <mxCell id="HOddscPRWS1l2fwZ3m95-262" value="dispaly&lt;br&gt;(display.v)" style="rounded=1;whiteSpace=wrap;html=1;fontSize=20;fillColor=none;" vertex="1" parent="1">
          <mxGeometry x="10" y="2100" width="2600" height="60" as="geometry" />
        </mxCell>
        <mxCell id="HOddscPRWS1l2fwZ3m95-263" value="" style="endArrow=classic;html=1;rounded=0;fontSize=20;entryX=0.542;entryY=0;entryDx=0;entryDy=0;entryPerimeter=0;" edge="1" parent="1" target="HOddscPRWS1l2fwZ3m95-262">
          <mxGeometry width="50" height="50" relative="1" as="geometry">
            <mxPoint x="1419" y="2070" as="sourcePoint" />
            <mxPoint x="1430" y="2020.6999999999998" as="targetPoint" />
          </mxGeometry>
        </mxCell>
        <mxCell id="HOddscPRWS1l2fwZ3m95-264" value="" style="endArrow=classic;html=1;rounded=0;fontSize=20;entryX=0.542;entryY=0;entryDx=0;entryDy=0;entryPerimeter=0;" edge="1" parent="1">
          <mxGeometry width="50" height="50" relative="1" as="geometry">
            <mxPoint x="1584.67" y="2070" as="sourcePoint" />
            <mxPoint x="1584.8700000000003" y="2100" as="targetPoint" />
          </mxGeometry>
        </mxCell>
        <mxCell id="HOddscPRWS1l2fwZ3m95-265" value="" style="endArrow=classic;html=1;rounded=0;fontSize=20;entryX=0.542;entryY=0;entryDx=0;entryDy=0;entryPerimeter=0;" edge="1" parent="1">
          <mxGeometry width="50" height="50" relative="1" as="geometry">
            <mxPoint x="1744.67" y="2070" as="sourcePoint" />
            <mxPoint x="1744.8700000000003" y="2100" as="targetPoint" />
          </mxGeometry>
        </mxCell>
        <mxCell id="HOddscPRWS1l2fwZ3m95-266" value="" style="endArrow=classic;html=1;rounded=0;fontSize=20;entryX=0.542;entryY=0;entryDx=0;entryDy=0;entryPerimeter=0;" edge="1" parent="1">
          <mxGeometry width="50" height="50" relative="1" as="geometry">
            <mxPoint x="1904.67" y="2070" as="sourcePoint" />
            <mxPoint x="1904.8700000000003" y="2100" as="targetPoint" />
          </mxGeometry>
        </mxCell>
        <mxCell id="HOddscPRWS1l2fwZ3m95-272" value="" style="endArrow=classic;html=1;rounded=0;fontSize=20;exitX=0.365;exitY=1.037;exitDx=0;exitDy=0;exitPerimeter=0;" edge="1" parent="1" source="HOddscPRWS1l2fwZ3m95-262">
          <mxGeometry width="50" height="50" relative="1" as="geometry">
            <mxPoint x="950" y="2280" as="sourcePoint" />
            <mxPoint x="959" y="2200" as="targetPoint" />
          </mxGeometry>
        </mxCell>
        <mxCell id="HOddscPRWS1l2fwZ3m95-274" value="" style="endArrow=classic;html=1;rounded=0;fontSize=20;" edge="1" parent="1">
          <mxGeometry width="50" height="50" relative="1" as="geometry">
            <mxPoint x="1680" y="2160" as="sourcePoint" />
            <mxPoint x="1680" y="2200" as="targetPoint" />
          </mxGeometry>
        </mxCell>
        <mxCell id="HOddscPRWS1l2fwZ3m95-282" style="edgeStyle=orthogonalEdgeStyle;rounded=0;orthogonalLoop=1;jettySize=auto;html=1;exitX=0.5;exitY=1;exitDx=0;exitDy=0;entryX=0.612;entryY=0.008;entryDx=0;entryDy=0;entryPerimeter=0;fontSize=20;" edge="1" parent="1" source="HOddscPRWS1l2fwZ3m95-276" target="HOddscPRWS1l2fwZ3m95-261">
          <mxGeometry relative="1" as="geometry">
            <Array as="points">
              <mxPoint x="660" y="2320" />
              <mxPoint x="2860" y="2320" />
              <mxPoint x="2860" y="1920" />
              <mxPoint x="2119" y="1920" />
            </Array>
          </mxGeometry>
        </mxCell>
        <mxCell id="HOddscPRWS1l2fwZ3m95-276" value="sec0" style="rounded=1;whiteSpace=wrap;html=1;fontSize=20;fillColor=none;" vertex="1" parent="1">
          <mxGeometry x="630" y="2200" width="60" height="60" as="geometry" />
        </mxCell>
        <mxCell id="HOddscPRWS1l2fwZ3m95-287" style="edgeStyle=orthogonalEdgeStyle;rounded=0;orthogonalLoop=1;jettySize=auto;html=1;exitX=0.5;exitY=1;exitDx=0;exitDy=0;entryX=0.676;entryY=-0.037;entryDx=0;entryDy=0;entryPerimeter=0;fontSize=20;" edge="1" parent="1" source="HOddscPRWS1l2fwZ3m95-277" target="HOddscPRWS1l2fwZ3m95-261">
          <mxGeometry relative="1" as="geometry">
            <Array as="points">
              <mxPoint x="960" y="2300" />
              <mxPoint x="2820" y="2300" />
              <mxPoint x="2820" y="1940" />
              <mxPoint x="2199" y="1940" />
              <mxPoint x="2199" y="2008" />
            </Array>
          </mxGeometry>
        </mxCell>
        <mxCell id="HOddscPRWS1l2fwZ3m95-277" value="sec1" style="rounded=1;whiteSpace=wrap;html=1;fontSize=20;fillColor=none;" vertex="1" parent="1">
          <mxGeometry x="930" y="2200" width="60" height="60" as="geometry" />
        </mxCell>
        <mxCell id="HOddscPRWS1l2fwZ3m95-284" style="edgeStyle=orthogonalEdgeStyle;rounded=0;orthogonalLoop=1;jettySize=auto;html=1;exitX=0.5;exitY=1;exitDx=0;exitDy=0;entryX=0.735;entryY=0.039;entryDx=0;entryDy=0;entryPerimeter=0;fontSize=20;" edge="1" parent="1" source="HOddscPRWS1l2fwZ3m95-280" target="HOddscPRWS1l2fwZ3m95-261">
          <mxGeometry relative="1" as="geometry">
            <Array as="points">
              <mxPoint x="1684" y="2280" />
              <mxPoint x="2780" y="2280" />
              <mxPoint x="2780" y="1960" />
              <mxPoint x="2275" y="1960" />
            </Array>
          </mxGeometry>
        </mxCell>
        <mxCell id="HOddscPRWS1l2fwZ3m95-280" value="min0" style="rounded=1;whiteSpace=wrap;html=1;fontSize=20;fillColor=none;" vertex="1" parent="1">
          <mxGeometry x="1654" y="2200" width="60" height="60" as="geometry" />
        </mxCell>
        <mxCell id="HOddscPRWS1l2fwZ3m95-285" style="edgeStyle=orthogonalEdgeStyle;rounded=0;orthogonalLoop=1;jettySize=auto;html=1;exitX=0.5;exitY=1;exitDx=0;exitDy=0;fontSize=20;" edge="1" parent="1" source="HOddscPRWS1l2fwZ3m95-281">
          <mxGeometry relative="1" as="geometry">
            <mxPoint x="2360" y="2010" as="targetPoint" />
            <Array as="points">
              <mxPoint x="1960" y="2270" />
              <mxPoint x="2750" y="2270" />
              <mxPoint x="2750" y="1980" />
              <mxPoint x="2360" y="1980" />
            </Array>
          </mxGeometry>
        </mxCell>
        <mxCell id="HOddscPRWS1l2fwZ3m95-281" value="min1" style="rounded=1;whiteSpace=wrap;html=1;fontSize=20;fillColor=none;" vertex="1" parent="1">
          <mxGeometry x="1930" y="2200" width="60" height="60" as="geometry" />
        </mxCell>
        <mxCell id="HOddscPRWS1l2fwZ3m95-288" value="scan_ctl&lt;br&gt;(scan_ctl.v)" style="rounded=1;whiteSpace=wrap;html=1;fontSize=20;fillColor=none;" vertex="1" parent="1">
          <mxGeometry x="10" y="2350" width="2600" height="60" as="geometry" />
        </mxCell>
        <mxCell id="HOddscPRWS1l2fwZ3m95-289" value="" style="endArrow=classic;html=1;rounded=0;fontSize=20;exitX=0.5;exitY=1;exitDx=0;exitDy=0;entryX=0.25;entryY=0;entryDx=0;entryDy=0;" edge="1" parent="1" source="HOddscPRWS1l2fwZ3m95-276" target="HOddscPRWS1l2fwZ3m95-288">
          <mxGeometry width="50" height="50" relative="1" as="geometry">
            <mxPoint x="1020" y="2040" as="sourcePoint" />
            <mxPoint x="1070" y="1990" as="targetPoint" />
          </mxGeometry>
        </mxCell>
        <mxCell id="HOddscPRWS1l2fwZ3m95-290" value="" style="endArrow=classic;html=1;rounded=0;fontSize=20;exitX=0.5;exitY=1;exitDx=0;exitDy=0;entryX=0.25;entryY=0;entryDx=0;entryDy=0;" edge="1" parent="1">
          <mxGeometry width="50" height="50" relative="1" as="geometry">
            <mxPoint x="959" y="2260" as="sourcePoint" />
            <mxPoint x="959.0000000000023" y="2350" as="targetPoint" />
          </mxGeometry>
        </mxCell>
        <mxCell id="HOddscPRWS1l2fwZ3m95-291" value="" style="endArrow=classic;html=1;rounded=0;fontSize=20;exitX=0.5;exitY=1;exitDx=0;exitDy=0;entryX=0.25;entryY=0;entryDx=0;entryDy=0;" edge="1" parent="1">
          <mxGeometry width="50" height="50" relative="1" as="geometry">
            <mxPoint x="1683" y="2260" as="sourcePoint" />
            <mxPoint x="1683.0000000000023" y="2350" as="targetPoint" />
          </mxGeometry>
        </mxCell>
        <mxCell id="HOddscPRWS1l2fwZ3m95-292" value="" style="endArrow=classic;html=1;rounded=0;fontSize=20;exitX=0.5;exitY=1;exitDx=0;exitDy=0;entryX=0.25;entryY=0;entryDx=0;entryDy=0;" edge="1" parent="1">
          <mxGeometry width="50" height="50" relative="1" as="geometry">
            <mxPoint x="1959" y="2260" as="sourcePoint" />
            <mxPoint x="1959.0000000000023" y="2350" as="targetPoint" />
          </mxGeometry>
        </mxCell>
        <mxCell id="HOddscPRWS1l2fwZ3m95-301" value="" style="endArrow=classic;html=1;rounded=0;fontSize=20;exitX=0.5;exitY=1;exitDx=0;exitDy=0;entryX=0.25;entryY=0;entryDx=0;entryDy=0;" edge="1" parent="1">
          <mxGeometry width="50" height="50" relative="1" as="geometry">
            <mxPoint x="660" y="2410" as="sourcePoint" />
            <mxPoint x="660.0000000000023" y="2500" as="targetPoint" />
          </mxGeometry>
        </mxCell>
        <mxCell id="HOddscPRWS1l2fwZ3m95-302" value="in0" style="rounded=1;whiteSpace=wrap;html=1;fontSize=20;fillColor=none;" vertex="1" parent="1">
          <mxGeometry x="630" y="2500" width="60" height="60" as="geometry" />
        </mxCell>
        <mxCell id="HOddscPRWS1l2fwZ3m95-303" value="" style="endArrow=classic;html=1;rounded=0;fontSize=20;exitX=0.5;exitY=1;exitDx=0;exitDy=0;entryX=0.25;entryY=0;entryDx=0;entryDy=0;" edge="1" parent="1">
          <mxGeometry width="50" height="50" relative="1" as="geometry">
            <mxPoint x="960" y="2410" as="sourcePoint" />
            <mxPoint x="960.0000000000023" y="2500" as="targetPoint" />
          </mxGeometry>
        </mxCell>
        <mxCell id="HOddscPRWS1l2fwZ3m95-304" value="in1" style="rounded=1;whiteSpace=wrap;html=1;fontSize=20;fillColor=none;" vertex="1" parent="1">
          <mxGeometry x="930" y="2500" width="60" height="60" as="geometry" />
        </mxCell>
        <mxCell id="HOddscPRWS1l2fwZ3m95-305" value="" style="endArrow=classic;html=1;rounded=0;fontSize=20;exitX=0.5;exitY=1;exitDx=0;exitDy=0;entryX=0.25;entryY=0;entryDx=0;entryDy=0;" edge="1" parent="1">
          <mxGeometry width="50" height="50" relative="1" as="geometry">
            <mxPoint x="1684" y="2410" as="sourcePoint" />
            <mxPoint x="1684.0000000000023" y="2500" as="targetPoint" />
          </mxGeometry>
        </mxCell>
        <mxCell id="HOddscPRWS1l2fwZ3m95-306" value="in2" style="rounded=1;whiteSpace=wrap;html=1;fontSize=20;fillColor=none;" vertex="1" parent="1">
          <mxGeometry x="1654" y="2500" width="60" height="60" as="geometry" />
        </mxCell>
        <mxCell id="HOddscPRWS1l2fwZ3m95-307" value="" style="endArrow=classic;html=1;rounded=0;fontSize=20;exitX=0.5;exitY=1;exitDx=0;exitDy=0;entryX=0.25;entryY=0;entryDx=0;entryDy=0;" edge="1" parent="1">
          <mxGeometry width="50" height="50" relative="1" as="geometry">
            <mxPoint x="1960" y="2410" as="sourcePoint" />
            <mxPoint x="1960.0000000000023" y="2500" as="targetPoint" />
          </mxGeometry>
        </mxCell>
        <mxCell id="HOddscPRWS1l2fwZ3m95-308" value="in3" style="rounded=1;whiteSpace=wrap;html=1;fontSize=20;fillColor=none;" vertex="1" parent="1">
          <mxGeometry x="1930" y="2500" width="60" height="60" as="geometry" />
        </mxCell>
        <mxCell id="HOddscPRWS1l2fwZ3m95-309" value="fsm(Finite State Machine)&lt;br&gt;fsm.v" style="rounded=1;whiteSpace=wrap;html=1;fontSize=20;fillColor=none;" vertex="1" parent="1">
          <mxGeometry x="1640" y="330" width="2890" height="60" as="geometry" />
        </mxCell>
        <mxCell id="HOddscPRWS1l2fwZ3m95-314" value="`TIME_MINSEC_STAT" style="rounded=1;whiteSpace=wrap;html=1;fontSize=20;fillColor=none;" vertex="1" parent="1">
          <mxGeometry x="1680" y="520" width="230" height="60" as="geometry" />
        </mxCell>
        <mxCell id="HOddscPRWS1l2fwZ3m95-315" value="" style="endArrow=classic;html=1;rounded=0;fontSize=20;entryX=0.5;entryY=0;entryDx=0;entryDy=0;" edge="1" parent="1" target="HOddscPRWS1l2fwZ3m95-314">
          <mxGeometry width="50" height="50" relative="1" as="geometry">
            <mxPoint x="1795" y="490" as="sourcePoint" />
            <mxPoint x="970" y="-540.3" as="targetPoint" />
          </mxGeometry>
        </mxCell>
        <mxCell id="HOddscPRWS1l2fwZ3m95-316" value="" style="endArrow=classic;html=1;rounded=0;fontSize=20;exitX=0.5;exitY=1;exitDx=0;exitDy=0;" edge="1" parent="1" source="HOddscPRWS1l2fwZ3m95-314">
          <mxGeometry width="50" height="50" relative="1" as="geometry">
            <mxPoint x="1759.88" y="570" as="sourcePoint" />
            <mxPoint x="1795" y="680" as="targetPoint" />
          </mxGeometry>
        </mxCell>
        <mxCell id="HOddscPRWS1l2fwZ3m95-317" value="`TIME_DAYHOUR_STAT" style="rounded=1;whiteSpace=wrap;html=1;fontSize=20;fillColor=none;" vertex="1" parent="1">
          <mxGeometry x="1920" y="518.6800000000001" width="230" height="60" as="geometry" />
        </mxCell>
        <mxCell id="HOddscPRWS1l2fwZ3m95-318" value="" style="endArrow=classic;html=1;rounded=0;fontSize=20;entryX=0.5;entryY=0;entryDx=0;entryDy=0;exitX=0.026;exitY=1.022;exitDx=0;exitDy=0;exitPerimeter=0;" edge="1" parent="1" target="HOddscPRWS1l2fwZ3m95-317">
          <mxGeometry width="50" height="50" relative="1" as="geometry">
            <mxPoint x="2034.8399999999997" y="490" as="sourcePoint" />
            <mxPoint x="1210" y="-541.62" as="targetPoint" />
          </mxGeometry>
        </mxCell>
        <mxCell id="HOddscPRWS1l2fwZ3m95-319" value="" style="endArrow=classic;html=1;rounded=0;fontSize=20;exitX=0.5;exitY=1;exitDx=0;exitDy=0;" edge="1" parent="1" source="HOddscPRWS1l2fwZ3m95-317">
          <mxGeometry width="50" height="50" relative="1" as="geometry">
            <mxPoint x="1999.88" y="568.6800000000001" as="sourcePoint" />
            <mxPoint x="2035" y="678.68" as="targetPoint" />
          </mxGeometry>
        </mxCell>
        <mxCell id="HOddscPRWS1l2fwZ3m95-321" value="&amp;nbsp;`TIME_YEARMONTH_STAT" style="rounded=1;whiteSpace=wrap;html=1;fontSize=20;fillColor=none;" vertex="1" parent="1">
          <mxGeometry x="2160" y="518.6800000000001" width="260" height="60" as="geometry" />
        </mxCell>
        <mxCell id="HOddscPRWS1l2fwZ3m95-322" value="" style="endArrow=classic;html=1;rounded=0;fontSize=20;entryX=0.5;entryY=0;entryDx=0;entryDy=0;" edge="1" parent="1" target="HOddscPRWS1l2fwZ3m95-321">
          <mxGeometry width="50" height="50" relative="1" as="geometry">
            <mxPoint x="2290" y="490" as="sourcePoint" />
            <mxPoint x="1450" y="-541.62" as="targetPoint" />
          </mxGeometry>
        </mxCell>
        <mxCell id="HOddscPRWS1l2fwZ3m95-323" value="" style="endArrow=classic;html=1;rounded=0;fontSize=20;exitX=0.5;exitY=1;exitDx=0;exitDy=0;" edge="1" parent="1" source="HOddscPRWS1l2fwZ3m95-321">
          <mxGeometry width="50" height="50" relative="1" as="geometry">
            <mxPoint x="2239.88" y="568.6800000000001" as="sourcePoint" />
            <mxPoint x="2290" y="680" as="targetPoint" />
          </mxGeometry>
        </mxCell>
        <mxCell id="HOddscPRWS1l2fwZ3m95-324" value="`ALM_DISP" style="rounded=1;whiteSpace=wrap;html=1;fontSize=20;fillColor=none;" vertex="1" parent="1">
          <mxGeometry x="2430" y="518.6800000000001" width="120" height="60" as="geometry" />
        </mxCell>
        <mxCell id="HOddscPRWS1l2fwZ3m95-325" value="" style="endArrow=classic;html=1;rounded=0;fontSize=20;entryX=0.5;entryY=0;entryDx=0;entryDy=0;" edge="1" parent="1" target="HOddscPRWS1l2fwZ3m95-324">
          <mxGeometry width="50" height="50" relative="1" as="geometry">
            <mxPoint x="2490" y="490" as="sourcePoint" />
            <mxPoint x="1610" y="-541.62" as="targetPoint" />
          </mxGeometry>
        </mxCell>
        <mxCell id="HOddscPRWS1l2fwZ3m95-326" value="" style="endArrow=classic;html=1;rounded=0;fontSize=20;exitX=0.5;exitY=1;exitDx=0;exitDy=0;" edge="1" parent="1" source="HOddscPRWS1l2fwZ3m95-324">
          <mxGeometry width="50" height="50" relative="1" as="geometry">
            <mxPoint x="2399.88" y="568.6800000000001" as="sourcePoint" />
            <mxPoint x="2490" y="680" as="targetPoint" />
          </mxGeometry>
        </mxCell>
        <mxCell id="HOddscPRWS1l2fwZ3m95-327" value="`TIME_SETMINSEC" style="rounded=1;whiteSpace=wrap;html=1;fontSize=20;fillColor=none;" vertex="1" parent="1">
          <mxGeometry x="2645" y="520" width="230" height="60" as="geometry" />
        </mxCell>
        <mxCell id="HOddscPRWS1l2fwZ3m95-328" value="" style="endArrow=classic;html=1;rounded=0;fontSize=20;entryX=0.5;entryY=0;entryDx=0;entryDy=0;exitX=0.026;exitY=1.022;exitDx=0;exitDy=0;exitPerimeter=0;" edge="1" parent="1" target="HOddscPRWS1l2fwZ3m95-327">
          <mxGeometry width="50" height="50" relative="1" as="geometry">
            <mxPoint x="2759.8399999999997" y="491.31999999999994" as="sourcePoint" />
            <mxPoint x="1935" y="-540.3" as="targetPoint" />
          </mxGeometry>
        </mxCell>
        <mxCell id="HOddscPRWS1l2fwZ3m95-329" value="" style="endArrow=classic;html=1;rounded=0;fontSize=20;exitX=0.5;exitY=1;exitDx=0;exitDy=0;" edge="1" parent="1" source="HOddscPRWS1l2fwZ3m95-327">
          <mxGeometry width="50" height="50" relative="1" as="geometry">
            <mxPoint x="2724.88" y="570" as="sourcePoint" />
            <mxPoint x="2760" y="680" as="targetPoint" />
          </mxGeometry>
        </mxCell>
        <mxCell id="HOddscPRWS1l2fwZ3m95-330" value="`TIME_SETDAYHOUR" style="rounded=1;whiteSpace=wrap;html=1;fontSize=20;fillColor=none;" vertex="1" parent="1">
          <mxGeometry x="2885" y="518.6800000000001" width="230" height="60" as="geometry" />
        </mxCell>
        <mxCell id="HOddscPRWS1l2fwZ3m95-331" value="" style="endArrow=classic;html=1;rounded=0;fontSize=20;entryX=0.5;entryY=0;entryDx=0;entryDy=0;exitX=0.026;exitY=1.022;exitDx=0;exitDy=0;exitPerimeter=0;" edge="1" parent="1" target="HOddscPRWS1l2fwZ3m95-330">
          <mxGeometry width="50" height="50" relative="1" as="geometry">
            <mxPoint x="2999.84" y="490" as="sourcePoint" />
            <mxPoint x="2175" y="-541.62" as="targetPoint" />
          </mxGeometry>
        </mxCell>
        <mxCell id="HOddscPRWS1l2fwZ3m95-332" value="" style="endArrow=classic;html=1;rounded=0;fontSize=20;exitX=0.5;exitY=1;exitDx=0;exitDy=0;" edge="1" parent="1" source="HOddscPRWS1l2fwZ3m95-330">
          <mxGeometry width="50" height="50" relative="1" as="geometry">
            <mxPoint x="2964.88" y="568.6800000000001" as="sourcePoint" />
            <mxPoint x="3000" y="678.6799999999998" as="targetPoint" />
          </mxGeometry>
        </mxCell>
        <mxCell id="HOddscPRWS1l2fwZ3m95-333" value="&amp;nbsp;`TIME_SETYEARMONTH" style="rounded=1;whiteSpace=wrap;html=1;fontSize=20;fillColor=none;" vertex="1" parent="1">
          <mxGeometry x="3125" y="518.6800000000001" width="260" height="60" as="geometry" />
        </mxCell>
        <mxCell id="HOddscPRWS1l2fwZ3m95-334" value="" style="endArrow=classic;html=1;rounded=0;fontSize=20;entryX=0.5;entryY=0;entryDx=0;entryDy=0;" edge="1" parent="1" target="HOddscPRWS1l2fwZ3m95-333">
          <mxGeometry width="50" height="50" relative="1" as="geometry">
            <mxPoint x="3255" y="490" as="sourcePoint" />
            <mxPoint x="2415" y="-541.62" as="targetPoint" />
          </mxGeometry>
        </mxCell>
        <mxCell id="HOddscPRWS1l2fwZ3m95-335" value="" style="endArrow=classic;html=1;rounded=0;fontSize=20;exitX=0.5;exitY=1;exitDx=0;exitDy=0;" edge="1" parent="1" source="HOddscPRWS1l2fwZ3m95-333">
          <mxGeometry width="50" height="50" relative="1" as="geometry">
            <mxPoint x="3204.88" y="568.6800000000001" as="sourcePoint" />
            <mxPoint x="3255" y="680" as="targetPoint" />
          </mxGeometry>
        </mxCell>
        <mxCell id="HOddscPRWS1l2fwZ3m95-336" value="`ALM_SETHOURMIN" style="rounded=1;whiteSpace=wrap;html=1;fontSize=20;fillColor=none;" vertex="1" parent="1">
          <mxGeometry x="3395" y="518.6800000000001" width="230" height="60" as="geometry" />
        </mxCell>
        <mxCell id="HOddscPRWS1l2fwZ3m95-337" value="" style="endArrow=classic;html=1;rounded=0;fontSize=20;entryX=0.5;entryY=0;entryDx=0;entryDy=0;exitX=0.026;exitY=1.022;exitDx=0;exitDy=0;exitPerimeter=0;" edge="1" parent="1" target="HOddscPRWS1l2fwZ3m95-336">
          <mxGeometry width="50" height="50" relative="1" as="geometry">
            <mxPoint x="3509.84" y="490" as="sourcePoint" />
            <mxPoint x="2685" y="-541.62" as="targetPoint" />
          </mxGeometry>
        </mxCell>
        <mxCell id="HOddscPRWS1l2fwZ3m95-338" value="" style="endArrow=classic;html=1;rounded=0;fontSize=20;exitX=0.5;exitY=1;exitDx=0;exitDy=0;" edge="1" parent="1" source="HOddscPRWS1l2fwZ3m95-336">
          <mxGeometry width="50" height="50" relative="1" as="geometry">
            <mxPoint x="3474.88" y="568.6800000000001" as="sourcePoint" />
            <mxPoint x="3510" y="678.68" as="targetPoint" />
          </mxGeometry>
        </mxCell>
        <mxCell id="HOddscPRWS1l2fwZ3m95-378" style="edgeStyle=orthogonalEdgeStyle;rounded=0;orthogonalLoop=1;jettySize=auto;html=1;exitX=0;exitY=0.75;exitDx=0;exitDy=0;fontSize=20;entryX=1;entryY=0;entryDx=0;entryDy=0;" edge="1" parent="1" source="HOddscPRWS1l2fwZ3m95-341" target="HOddscPRWS1l2fwZ3m95-120">
          <mxGeometry relative="1" as="geometry">
            <mxPoint x="1640" y="1230" as="targetPoint" />
            <Array as="points">
              <mxPoint x="1640" y="470" />
              <mxPoint x="1610" y="470" />
              <mxPoint x="1610" y="1360" />
            </Array>
          </mxGeometry>
        </mxCell>
        <mxCell id="HOddscPRWS1l2fwZ3m95-402" style="edgeStyle=orthogonalEdgeStyle;rounded=0;orthogonalLoop=1;jettySize=auto;html=1;exitX=0;exitY=0.25;exitDx=0;exitDy=0;entryX=1;entryY=0.5;entryDx=0;entryDy=0;fontSize=20;" edge="1" parent="1" source="HOddscPRWS1l2fwZ3m95-341" target="HOddscPRWS1l2fwZ3m95-63">
          <mxGeometry relative="1" as="geometry">
            <Array as="points">
              <mxPoint x="1600" y="445" />
              <mxPoint x="1600" y="1030" />
            </Array>
          </mxGeometry>
        </mxCell>
        <mxCell id="HOddscPRWS1l2fwZ3m95-341" value="switch&lt;br&gt;00" style="rounded=1;whiteSpace=wrap;html=1;fontSize=20;fillColor=none;" vertex="1" parent="1">
          <mxGeometry x="1640" y="430" width="990" height="60" as="geometry" />
        </mxCell>
        <mxCell id="HOddscPRWS1l2fwZ3m95-342" value="" style="endArrow=classic;html=1;rounded=0;fontSize=20;entryX=0.5;entryY=0;entryDx=0;entryDy=0;" edge="1" parent="1" target="HOddscPRWS1l2fwZ3m95-341">
          <mxGeometry width="50" height="50" relative="1" as="geometry">
            <mxPoint x="2135" y="390" as="sourcePoint" />
            <mxPoint x="1310" y="-630.3" as="targetPoint" />
          </mxGeometry>
        </mxCell>
        <mxCell id="HOddscPRWS1l2fwZ3m95-375" style="edgeStyle=orthogonalEdgeStyle;rounded=0;orthogonalLoop=1;jettySize=auto;html=1;exitX=0;exitY=1;exitDx=0;exitDy=0;entryX=1;entryY=0.5;entryDx=0;entryDy=0;fontSize=20;" edge="1" parent="1" source="HOddscPRWS1l2fwZ3m95-344" target="HOddscPRWS1l2fwZ3m95-35">
          <mxGeometry relative="1" as="geometry">
            <Array as="points">
              <mxPoint x="2640" y="930" />
              <mxPoint x="720" y="930" />
              <mxPoint x="720" y="1030" />
            </Array>
          </mxGeometry>
        </mxCell>
        <mxCell id="HOddscPRWS1l2fwZ3m95-344" value="switch&lt;br&gt;01" style="rounded=1;whiteSpace=wrap;html=1;fontSize=20;fillColor=none;" vertex="1" parent="1">
          <mxGeometry x="2640" y="430" width="990" height="60" as="geometry" />
        </mxCell>
        <mxCell id="HOddscPRWS1l2fwZ3m95-345" value="" style="endArrow=classic;html=1;rounded=0;fontSize=20;entryX=0.5;entryY=0;entryDx=0;entryDy=0;" edge="1" parent="1" target="HOddscPRWS1l2fwZ3m95-344">
          <mxGeometry width="50" height="50" relative="1" as="geometry">
            <mxPoint x="3135" y="390" as="sourcePoint" />
            <mxPoint x="2310" y="-630.3" as="targetPoint" />
          </mxGeometry>
        </mxCell>
        <mxCell id="HOddscPRWS1l2fwZ3m95-393" style="edgeStyle=orthogonalEdgeStyle;rounded=0;orthogonalLoop=1;jettySize=auto;html=1;exitX=1;exitY=0.25;exitDx=0;exitDy=0;entryX=1;entryY=0.75;entryDx=0;entryDy=0;fontSize=20;" edge="1" parent="1" source="HOddscPRWS1l2fwZ3m95-347" target="HOddscPRWS1l2fwZ3m95-261">
          <mxGeometry relative="1" as="geometry" />
        </mxCell>
        <mxCell id="HOddscPRWS1l2fwZ3m95-395" style="edgeStyle=orthogonalEdgeStyle;rounded=0;orthogonalLoop=1;jettySize=auto;html=1;exitX=1;exitY=0.75;exitDx=0;exitDy=0;entryX=1;entryY=0.5;entryDx=0;entryDy=0;fontSize=20;" edge="1" parent="1" source="HOddscPRWS1l2fwZ3m95-347" target="HOddscPRWS1l2fwZ3m95-380">
          <mxGeometry relative="1" as="geometry">
            <Array as="points">
              <mxPoint x="4600" y="475" />
              <mxPoint x="4600" y="1080" />
              <mxPoint x="2280" y="1080" />
              <mxPoint x="2280" y="1020" />
            </Array>
          </mxGeometry>
        </mxCell>
        <mxCell id="HOddscPRWS1l2fwZ3m95-347" value="switch&lt;br&gt;10" style="rounded=1;whiteSpace=wrap;html=1;fontSize=20;fillColor=none;" vertex="1" parent="1">
          <mxGeometry x="3640" y="430" width="890" height="60" as="geometry" />
        </mxCell>
        <mxCell id="HOddscPRWS1l2fwZ3m95-348" value="" style="endArrow=classic;html=1;rounded=0;fontSize=20;entryX=0.5;entryY=0;entryDx=0;entryDy=0;" edge="1" parent="1" target="HOddscPRWS1l2fwZ3m95-347">
          <mxGeometry width="50" height="50" relative="1" as="geometry">
            <mxPoint x="4085" y="390" as="sourcePoint" />
            <mxPoint x="3310" y="-630.3" as="targetPoint" />
          </mxGeometry>
        </mxCell>
        <mxCell id="HOddscPRWS1l2fwZ3m95-349" value="`STW_DISP" style="rounded=1;whiteSpace=wrap;html=1;fontSize=20;fillColor=none;" vertex="1" parent="1">
          <mxGeometry x="3640" y="518.68" width="130" height="60" as="geometry" />
        </mxCell>
        <mxCell id="HOddscPRWS1l2fwZ3m95-350" value="" style="endArrow=classic;html=1;rounded=0;fontSize=20;entryX=0.5;entryY=0;entryDx=0;entryDy=0;" edge="1" parent="1" target="HOddscPRWS1l2fwZ3m95-349">
          <mxGeometry width="50" height="50" relative="1" as="geometry">
            <mxPoint x="3705" y="490" as="sourcePoint" />
            <mxPoint x="2930" y="-541.62" as="targetPoint" />
          </mxGeometry>
        </mxCell>
        <mxCell id="HOddscPRWS1l2fwZ3m95-351" value="" style="endArrow=classic;html=1;rounded=0;fontSize=20;exitX=0.5;exitY=1;exitDx=0;exitDy=0;" edge="1" parent="1" source="HOddscPRWS1l2fwZ3m95-349">
          <mxGeometry width="50" height="50" relative="1" as="geometry">
            <mxPoint x="3719.88" y="568.68" as="sourcePoint" />
            <mxPoint x="3705" y="680" as="targetPoint" />
          </mxGeometry>
        </mxCell>
        <mxCell id="HOddscPRWS1l2fwZ3m95-355" value="`STW_START" style="rounded=1;whiteSpace=wrap;html=1;fontSize=20;fillColor=none;" vertex="1" parent="1">
          <mxGeometry x="3780" y="518.68" width="130" height="60" as="geometry" />
        </mxCell>
        <mxCell id="HOddscPRWS1l2fwZ3m95-356" value="" style="endArrow=classic;html=1;rounded=0;fontSize=20;entryX=0.5;entryY=0;entryDx=0;entryDy=0;" edge="1" parent="1" target="HOddscPRWS1l2fwZ3m95-355">
          <mxGeometry width="50" height="50" relative="1" as="geometry">
            <mxPoint x="3845" y="490" as="sourcePoint" />
            <mxPoint x="3070" y="-541.62" as="targetPoint" />
          </mxGeometry>
        </mxCell>
        <mxCell id="HOddscPRWS1l2fwZ3m95-357" value="" style="endArrow=classic;html=1;rounded=0;fontSize=20;exitX=0.5;exitY=1;exitDx=0;exitDy=0;" edge="1" parent="1" source="HOddscPRWS1l2fwZ3m95-355">
          <mxGeometry width="50" height="50" relative="1" as="geometry">
            <mxPoint x="3859.88" y="568.68" as="sourcePoint" />
            <mxPoint x="3845" y="680" as="targetPoint" />
          </mxGeometry>
        </mxCell>
        <mxCell id="HOddscPRWS1l2fwZ3m95-358" value="`STW_PAUSE" style="rounded=1;whiteSpace=wrap;html=1;fontSize=20;fillColor=none;" vertex="1" parent="1">
          <mxGeometry x="3920" y="518.68" width="130" height="60" as="geometry" />
        </mxCell>
        <mxCell id="HOddscPRWS1l2fwZ3m95-359" value="" style="endArrow=classic;html=1;rounded=0;fontSize=20;entryX=0.5;entryY=0;entryDx=0;entryDy=0;" edge="1" parent="1" target="HOddscPRWS1l2fwZ3m95-358">
          <mxGeometry width="50" height="50" relative="1" as="geometry">
            <mxPoint x="3985" y="490" as="sourcePoint" />
            <mxPoint x="3210" y="-541.62" as="targetPoint" />
          </mxGeometry>
        </mxCell>
        <mxCell id="HOddscPRWS1l2fwZ3m95-360" value="" style="endArrow=classic;html=1;rounded=0;fontSize=20;exitX=0.5;exitY=1;exitDx=0;exitDy=0;" edge="1" parent="1" source="HOddscPRWS1l2fwZ3m95-358">
          <mxGeometry width="50" height="50" relative="1" as="geometry">
            <mxPoint x="3999.88" y="568.68" as="sourcePoint" />
            <mxPoint x="3985" y="680" as="targetPoint" />
          </mxGeometry>
        </mxCell>
        <mxCell id="HOddscPRWS1l2fwZ3m95-361" value="`STW_FREEZE" style="rounded=1;whiteSpace=wrap;html=1;fontSize=20;fillColor=none;" vertex="1" parent="1">
          <mxGeometry x="4060" y="518.6800000000001" width="230" height="60" as="geometry" />
        </mxCell>
        <mxCell id="HOddscPRWS1l2fwZ3m95-362" value="" style="endArrow=classic;html=1;rounded=0;fontSize=20;entryX=0.5;entryY=0;entryDx=0;entryDy=0;exitX=0.026;exitY=1.022;exitDx=0;exitDy=0;exitPerimeter=0;" edge="1" parent="1" target="HOddscPRWS1l2fwZ3m95-361">
          <mxGeometry width="50" height="50" relative="1" as="geometry">
            <mxPoint x="4174.84" y="490" as="sourcePoint" />
            <mxPoint x="3350" y="-541.62" as="targetPoint" />
          </mxGeometry>
        </mxCell>
        <mxCell id="HOddscPRWS1l2fwZ3m95-363" value="" style="endArrow=classic;html=1;rounded=0;fontSize=20;exitX=0.5;exitY=1;exitDx=0;exitDy=0;" edge="1" parent="1" source="HOddscPRWS1l2fwZ3m95-361">
          <mxGeometry width="50" height="50" relative="1" as="geometry">
            <mxPoint x="4139.88" y="568.6800000000001" as="sourcePoint" />
            <mxPoint x="4175" y="678.6799999999998" as="targetPoint" />
          </mxGeometry>
        </mxCell>
        <mxCell id="HOddscPRWS1l2fwZ3m95-364" value="`STW_FREEZE_PAUSE" style="rounded=1;whiteSpace=wrap;html=1;fontSize=20;fillColor=none;" vertex="1" parent="1">
          <mxGeometry x="4300" y="518.6800000000001" width="230" height="60" as="geometry" />
        </mxCell>
        <mxCell id="HOddscPRWS1l2fwZ3m95-365" value="" style="endArrow=classic;html=1;rounded=0;fontSize=20;entryX=0.5;entryY=0;entryDx=0;entryDy=0;exitX=0.026;exitY=1.022;exitDx=0;exitDy=0;exitPerimeter=0;" edge="1" parent="1" target="HOddscPRWS1l2fwZ3m95-364">
          <mxGeometry width="50" height="50" relative="1" as="geometry">
            <mxPoint x="4414.84" y="490" as="sourcePoint" />
            <mxPoint x="3590" y="-541.62" as="targetPoint" />
          </mxGeometry>
        </mxCell>
        <mxCell id="HOddscPRWS1l2fwZ3m95-366" value="" style="endArrow=classic;html=1;rounded=0;fontSize=20;exitX=0.5;exitY=1;exitDx=0;exitDy=0;" edge="1" parent="1" source="HOddscPRWS1l2fwZ3m95-364">
          <mxGeometry width="50" height="50" relative="1" as="geometry">
            <mxPoint x="4379.88" y="568.6800000000001" as="sourcePoint" />
            <mxPoint x="4415" y="678.6799999999998" as="targetPoint" />
          </mxGeometry>
        </mxCell>
        <mxCell id="HOddscPRWS1l2fwZ3m95-368" style="edgeStyle=orthogonalEdgeStyle;rounded=0;orthogonalLoop=1;jettySize=auto;html=1;exitX=0.25;exitY=1;exitDx=0;exitDy=0;entryX=1;entryY=0.5;entryDx=0;entryDy=0;fontSize=20;" edge="1" parent="1" source="HOddscPRWS1l2fwZ3m95-367" target="HOddscPRWS1l2fwZ3m95-120">
          <mxGeometry relative="1" as="geometry" />
        </mxCell>
        <mxCell id="HOddscPRWS1l2fwZ3m95-370" style="edgeStyle=orthogonalEdgeStyle;rounded=0;orthogonalLoop=1;jettySize=auto;html=1;exitX=0.5;exitY=1;exitDx=0;exitDy=0;entryX=1;entryY=0.25;entryDx=0;entryDy=0;fontSize=20;" edge="1" parent="1" source="HOddscPRWS1l2fwZ3m95-367" target="HOddscPRWS1l2fwZ3m95-261">
          <mxGeometry relative="1" as="geometry" />
        </mxCell>
        <mxCell id="HOddscPRWS1l2fwZ3m95-371" style="edgeStyle=orthogonalEdgeStyle;rounded=0;orthogonalLoop=1;jettySize=auto;html=1;exitX=0.75;exitY=1;exitDx=0;exitDy=0;entryX=1;entryY=0.5;entryDx=0;entryDy=0;fontSize=20;" edge="1" parent="1" source="HOddscPRWS1l2fwZ3m95-367" target="HOddscPRWS1l2fwZ3m95-262">
          <mxGeometry relative="1" as="geometry" />
        </mxCell>
        <mxCell id="HOddscPRWS1l2fwZ3m95-367" value="STATE" style="rounded=1;whiteSpace=wrap;html=1;fontSize=20;fillColor=none;" vertex="1" parent="1">
          <mxGeometry x="1640" y="680" width="2890" height="60" as="geometry" />
        </mxCell>
        <mxCell id="HOddscPRWS1l2fwZ3m95-376" value="data_load_enable &amp;amp; state[4:3] == `TIME" style="rounded=1;whiteSpace=wrap;html=1;fontSize=20;fillColor=none;" vertex="1" parent="1">
          <mxGeometry x="1784" y="850" width="330" height="60" as="geometry" />
        </mxCell>
        <mxCell id="HOddscPRWS1l2fwZ3m95-379" value="reg_load_enable" style="rounded=1;whiteSpace=wrap;html=1;fontSize=20;fillColor=none;" vertex="1" parent="1">
          <mxGeometry x="1255" y="490.00000000000006" width="330" height="60" as="geometry" />
        </mxCell>
        <mxCell id="HOddscPRWS1l2fwZ3m95-380" value="stopwatch&lt;br&gt;(stopwatch.v)" style="rounded=1;whiteSpace=wrap;html=1;fontSize=20;fillColor=none;" vertex="1" parent="1">
          <mxGeometry x="1654" y="989.88" width="590" height="60" as="geometry" />
        </mxCell>
        <mxCell id="HOddscPRWS1l2fwZ3m95-381" value="sec0" style="rounded=1;whiteSpace=wrap;html=1;fontSize=20;fillColor=none;" vertex="1" parent="1">
          <mxGeometry x="1654" y="1069.5800000000002" width="140" height="60" as="geometry" />
        </mxCell>
        <mxCell id="HOddscPRWS1l2fwZ3m95-382" value="" style="endArrow=classic;html=1;rounded=0;fontSize=20;entryX=0.5;entryY=0;entryDx=0;entryDy=0;" edge="1" parent="1" target="HOddscPRWS1l2fwZ3m95-381">
          <mxGeometry width="50" height="50" relative="1" as="geometry">
            <mxPoint x="1724" y="1049.88" as="sourcePoint" />
            <mxPoint x="894" y="19.580000000000044" as="targetPoint" />
          </mxGeometry>
        </mxCell>
        <mxCell id="HOddscPRWS1l2fwZ3m95-383" value="sec1" style="rounded=1;whiteSpace=wrap;html=1;fontSize=20;fillColor=none;" vertex="1" parent="1">
          <mxGeometry x="1804" y="1069.5800000000002" width="140" height="60" as="geometry" />
        </mxCell>
        <mxCell id="HOddscPRWS1l2fwZ3m95-384" value="" style="endArrow=classic;html=1;rounded=0;fontSize=20;entryX=0.5;entryY=0;entryDx=0;entryDy=0;exitX=0.13;exitY=0.988;exitDx=0;exitDy=0;exitPerimeter=0;" edge="1" parent="1" target="HOddscPRWS1l2fwZ3m95-383">
          <mxGeometry width="50" height="50" relative="1" as="geometry">
            <mxPoint x="1874.1999999999998" y="1049.16" as="sourcePoint" />
            <mxPoint x="1044" y="-0.120000000000001" as="targetPoint" />
          </mxGeometry>
        </mxCell>
        <mxCell id="HOddscPRWS1l2fwZ3m95-385" value="" style="endArrow=classic;html=1;rounded=0;fontSize=20;exitX=0.5;exitY=1;exitDx=0;exitDy=0;entryX=0.8;entryY=0.009;entryDx=0;entryDy=0;entryPerimeter=0;" edge="1" parent="1" source="HOddscPRWS1l2fwZ3m95-383" target="HOddscPRWS1l2fwZ3m95-144">
          <mxGeometry width="50" height="50" relative="1" as="geometry">
            <mxPoint x="1103.88" y="50.17999999999995" as="sourcePoint" />
            <mxPoint x="1873.5" y="1249.34" as="targetPoint" />
            <Array as="points">
              <mxPoint x="1874" y="1720" />
              <mxPoint x="1588" y="1720" />
            </Array>
          </mxGeometry>
        </mxCell>
        <mxCell id="HOddscPRWS1l2fwZ3m95-386" value="min0" style="rounded=1;whiteSpace=wrap;html=1;fontSize=20;fillColor=none;" vertex="1" parent="1">
          <mxGeometry x="1954" y="1069.5800000000002" width="140" height="60" as="geometry" />
        </mxCell>
        <mxCell id="HOddscPRWS1l2fwZ3m95-387" value="" style="endArrow=classic;html=1;rounded=0;fontSize=20;entryX=0.5;entryY=0;entryDx=0;entryDy=0;exitX=0.13;exitY=0.988;exitDx=0;exitDy=0;exitPerimeter=0;" edge="1" parent="1" target="HOddscPRWS1l2fwZ3m95-386">
          <mxGeometry width="50" height="50" relative="1" as="geometry">
            <mxPoint x="2024.1999999999998" y="1049.16" as="sourcePoint" />
            <mxPoint x="1194" y="-0.120000000000001" as="targetPoint" />
          </mxGeometry>
        </mxCell>
        <mxCell id="HOddscPRWS1l2fwZ3m95-388" value="" style="endArrow=classic;html=1;rounded=0;fontSize=20;exitX=0.5;exitY=1;exitDx=0;exitDy=0;entryX=0.88;entryY=0.027;entryDx=0;entryDy=0;entryPerimeter=0;" edge="1" parent="1" source="HOddscPRWS1l2fwZ3m95-386" target="HOddscPRWS1l2fwZ3m95-144">
          <mxGeometry width="50" height="50" relative="1" as="geometry">
            <mxPoint x="1253.88" y="50.17999999999995" as="sourcePoint" />
            <mxPoint x="2024.2999999999997" y="1249.34" as="targetPoint" />
            <Array as="points">
              <mxPoint x="2024" y="1740" />
              <mxPoint x="1745" y="1740" />
            </Array>
          </mxGeometry>
        </mxCell>
        <mxCell id="HOddscPRWS1l2fwZ3m95-389" value="min1" style="rounded=1;whiteSpace=wrap;html=1;fontSize=20;fillColor=none;" vertex="1" parent="1">
          <mxGeometry x="2104" y="1070.3000000000002" width="140" height="60" as="geometry" />
        </mxCell>
        <mxCell id="HOddscPRWS1l2fwZ3m95-390" value="" style="endArrow=classic;html=1;rounded=0;fontSize=20;entryX=0.5;entryY=0;entryDx=0;entryDy=0;exitX=0.13;exitY=0.988;exitDx=0;exitDy=0;exitPerimeter=0;" edge="1" parent="1" target="HOddscPRWS1l2fwZ3m95-389">
          <mxGeometry width="50" height="50" relative="1" as="geometry">
            <mxPoint x="2174.2" y="1049.88" as="sourcePoint" />
            <mxPoint x="1344" y="0.5999999999999979" as="targetPoint" />
          </mxGeometry>
        </mxCell>
        <mxCell id="HOddscPRWS1l2fwZ3m95-391" value="" style="endArrow=classic;html=1;rounded=0;fontSize=20;exitX=0.5;exitY=1;exitDx=0;exitDy=0;" edge="1" parent="1" source="HOddscPRWS1l2fwZ3m95-389">
          <mxGeometry width="50" height="50" relative="1" as="geometry">
            <mxPoint x="1403.88" y="50.89999999999995" as="sourcePoint" />
            <mxPoint x="1910" y="1770" as="targetPoint" />
            <Array as="points">
              <mxPoint x="2170" y="1750" />
              <mxPoint x="1910" y="1750" />
            </Array>
          </mxGeometry>
        </mxCell>
        <mxCell id="HOddscPRWS1l2fwZ3m95-392" value="" style="endArrow=classic;html=1;rounded=0;fontSize=20;exitX=0.5;exitY=1;exitDx=0;exitDy=0;entryX=0.721;entryY=0.009;entryDx=0;entryDy=0;entryPerimeter=0;" edge="1" parent="1" source="HOddscPRWS1l2fwZ3m95-381" target="HOddscPRWS1l2fwZ3m95-144">
          <mxGeometry width="50" height="50" relative="1" as="geometry">
            <mxPoint x="1683.88" y="1129.88" as="sourcePoint" />
            <mxPoint x="1724" y="1248.86" as="targetPoint" />
            <Array as="points">
              <mxPoint x="1724" y="1690" />
              <mxPoint x="1434" y="1690" />
            </Array>
          </mxGeometry>
        </mxCell>
        <mxCell id="HOddscPRWS1l2fwZ3m95-394" value="Freeze_enabe" style="rounded=1;whiteSpace=wrap;html=1;fontSize=20;fillColor=none;" vertex="1" parent="1">
          <mxGeometry x="4240" y="800" width="280" height="60" as="geometry" />
        </mxCell>
        <mxCell id="HOddscPRWS1l2fwZ3m95-396" value="count_enabe&lt;br&gt;stopwatch_count_enable" style="rounded=1;whiteSpace=wrap;html=1;fontSize=20;fillColor=none;" vertex="1" parent="1">
          <mxGeometry x="4240" y="1000" width="280" height="60" as="geometry" />
        </mxCell>
        <mxCell id="HOddscPRWS1l2fwZ3m95-401" value="alarm_enale" style="rounded=1;whiteSpace=wrap;html=1;fontSize=20;fillColor=none;" vertex="1" parent="1">
          <mxGeometry x="1255" y="570" width="330" height="60" as="geometry" />
        </mxCell>
        <mxCell id="HOddscPRWS1l2fwZ3m95-406" style="edgeStyle=orthogonalEdgeStyle;rounded=0;orthogonalLoop=1;jettySize=auto;html=1;exitX=1;exitY=0.25;exitDx=0;exitDy=0;entryX=0;entryY=0.5;entryDx=0;entryDy=0;fontSize=20;" edge="1" parent="1" source="HOddscPRWS1l2fwZ3m95-405" target="HOddscPRWS1l2fwZ3m95-35">
          <mxGeometry relative="1" as="geometry" />
        </mxCell>
        <mxCell id="HOddscPRWS1l2fwZ3m95-423" style="edgeStyle=orthogonalEdgeStyle;rounded=0;orthogonalLoop=1;jettySize=auto;html=1;exitX=1;exitY=0.75;exitDx=0;exitDy=0;entryX=0;entryY=0.5;entryDx=0;entryDy=0;fontSize=20;" edge="1" parent="1" source="HOddscPRWS1l2fwZ3m95-405" target="HOddscPRWS1l2fwZ3m95-288">
          <mxGeometry relative="1" as="geometry" />
        </mxCell>
        <mxCell id="HOddscPRWS1l2fwZ3m95-405" value="clock_generator" style="rounded=1;whiteSpace=wrap;html=1;fontSize=20;fillColor=none;" vertex="1" parent="1">
          <mxGeometry x="-220" y="1000" width="120" height="830" as="geometry" />
        </mxCell>
        <mxCell id="HOddscPRWS1l2fwZ3m95-408" value="clk_2k" style="whiteSpace=wrap;html=1;fontSize=20;fillColor=none;rounded=1;" vertex="1" parent="1">
          <mxGeometry x="-90" y="1540" width="90" height="60" as="geometry" />
        </mxCell>
        <mxCell id="HOddscPRWS1l2fwZ3m95-409" value="clk_1Hz" style="whiteSpace=wrap;html=1;fontSize=20;fillColor=none;rounded=1;" vertex="1" parent="1">
          <mxGeometry x="-88" y="1230" width="88" height="60" as="geometry" />
        </mxCell>
        <mxCell id="HOddscPRWS1l2fwZ3m95-414" style="edgeStyle=orthogonalEdgeStyle;rounded=0;orthogonalLoop=1;jettySize=auto;html=1;exitX=0;exitY=0.5;exitDx=0;exitDy=0;entryX=0;entryY=0.5;entryDx=0;entryDy=0;fontSize=20;" edge="1" parent="1" source="HOddscPRWS1l2fwZ3m95-413" target="HOddscPRWS1l2fwZ3m95-380">
          <mxGeometry relative="1" as="geometry" />
        </mxCell>
        <mxCell id="HOddscPRWS1l2fwZ3m95-413" value="clk_1Hz" style="whiteSpace=wrap;html=1;fontSize=20;fillColor=none;rounded=1;" vertex="1" parent="1">
          <mxGeometry x="1670" y="860" width="88" height="60" as="geometry" />
        </mxCell>
        <mxCell id="HOddscPRWS1l2fwZ3m95-416" value="t2&lt;br&gt;top.v" style="rounded=1;whiteSpace=wrap;html=1;fontSize=20;fillColor=none;" vertex="1" parent="1">
          <mxGeometry x="1701" y="60" width="780" height="60" as="geometry" />
        </mxCell>
      </root>
    </mxGraphModel>
  </diagram>
</mxfile>
